<svg width="257" height="303" viewBox="0 0 257 303" fill="none" xmlns="http://www.w3.org/2000/svg">
<path d="M136.103 302.474C197.942 302.474 248.073 300.139 248.073 297.258C248.073 294.378 197.942 292.043 136.103 292.043C74.2636 292.043 24.1328 294.378 24.1328 297.258C24.1328 300.139 74.2636 302.474 136.103 302.474Z" fill="#263238"/>
<path d="M211.916 57.1801C212.717 58.5221 215.61 60.4898 215.61 60.4954C215.61 60.5011 216.331 58.195 216.359 58.0428C216.664 56.2893 216.23 52.7203 214.471 51.79C214.174 51.6421 213.849 51.5586 213.517 51.545C213.186 51.5313 212.855 51.5878 212.547 51.7108C212.239 51.8337 211.96 52.0203 211.729 52.2584C211.498 52.4965 211.32 52.7807 211.206 53.0924C210.682 54.4005 211.234 56.0412 211.916 57.1801Z" fill="#263238"/>
<path d="M240.266 78.3808C240.266 78.4146 242.132 76.8585 242.239 76.7457C243.463 75.4545 245.058 72.2351 244.117 70.4929C243.95 70.2063 243.725 69.9581 243.456 69.7645C243.187 69.5708 242.88 69.4361 242.556 69.369C242.231 69.302 241.896 69.3042 241.572 69.3754C241.249 69.4466 240.944 69.5853 240.677 69.7824C239.516 70.5774 239.07 72.252 238.986 73.5826C238.935 75.1388 240.266 78.3808 240.266 78.3808Z" fill="#263238"/>
<path d="M207.006 66.1342C208.089 67.1717 211.156 68.2486 211.399 68.3332C210.779 70.0792 210.278 71.8649 209.899 73.6782C209.668 74.7326 209.47 75.8095 209.284 76.8864C209.284 76.3846 209.284 75.9279 209.284 75.8659C209.121 74.0955 207.762 70.7914 205.811 70.3347C205.484 70.2692 205.148 70.2735 204.823 70.3472C204.498 70.421 204.193 70.5627 203.926 70.7629C203.66 70.9631 203.439 71.2173 203.278 71.5089C203.117 71.8005 203.02 72.1228 202.992 72.4547C202.828 73.853 203.793 75.2739 204.751 76.2098C205.71 77.1458 208.32 78.1155 209.014 78.3636C208.946 78.7809 208.873 79.1925 208.811 79.6097C208.5 81.6 208.196 83.5565 207.841 85.5299C207.717 86.2121 207.57 86.883 207.424 87.5483C207.424 87.1029 207.424 86.7252 207.424 86.6688C207.26 84.8927 205.901 81.5943 203.956 81.132C203.63 81.0674 203.293 81.0723 202.969 81.1465C202.644 81.2206 202.339 81.3623 202.073 81.5624C201.807 81.7624 201.586 82.0163 201.425 82.3074C201.264 82.5985 201.165 82.9204 201.137 83.252C200.973 84.6503 201.938 86.0711 202.896 87.0127C203.855 87.9543 206.217 88.8226 207.035 89.1214C206.865 89.798 206.696 90.4859 206.499 91.1343C206.358 91.5797 206.251 92.0139 206.082 92.4536L205.608 93.7448C205.281 94.5567 204.948 95.3968 204.604 96.1805C204.373 96.7444 204.142 97.2462 203.911 97.7649C204.041 97.0883 204.272 95.752 204.277 95.6392C204.385 93.8632 203.544 90.3675 201.684 89.6458C201.371 89.5348 201.038 89.4912 200.707 89.5179C200.376 89.5446 200.054 89.6409 199.763 89.8006C199.472 89.9604 199.218 90.1798 199.017 90.4446C198.817 90.7094 198.674 91.0136 198.6 91.3373C198.222 92.6961 198.961 94.2635 199.767 95.3179C200.658 96.4793 203.409 97.9622 203.753 98.137C203.364 98.994 202.981 99.8285 202.625 100.612C201.543 102.867 200.539 104.801 199.739 106.25L200.827 107.029C201.611 105.512 202.614 103.499 203.697 101.097C204.097 100.229 204.503 99.2872 204.909 98.3174C205.886 98.5595 206.876 98.7478 207.875 98.8812C208.061 100.37 209.436 102.941 209.617 103.273C208.816 103.781 208.038 104.26 207.294 104.706C205.174 105.98 203.313 107.006 201.853 107.784L203.037 108.63C204.401 107.852 206.059 106.882 207.908 105.715C208.726 105.202 209.6 104.644 210.457 104.057C210.716 104.339 212.853 106.628 214.201 107.198C215.43 107.716 217.133 108.032 218.351 107.327C218.642 107.171 218.898 106.954 219.1 106.693C219.303 106.431 219.449 106.129 219.527 105.808C219.606 105.486 219.616 105.151 219.557 104.826C219.498 104.5 219.371 104.19 219.185 103.916C218.018 102.298 214.421 102.371 212.729 102.918C212.628 102.952 211.602 103.426 210.931 103.736C211.291 103.499 211.635 103.268 212.002 103.014C212.724 102.524 213.434 102.01 214.195 101.458L215.283 100.612C215.65 100.342 216.005 100.003 216.377 99.6988C217.212 98.9658 218.024 98.1877 218.824 97.3871C219.258 98.0186 220.831 100.24 221.97 100.939C223.109 101.638 224.739 102.202 226.047 101.689C226.36 101.58 226.646 101.406 226.886 101.178C227.127 100.951 227.317 100.675 227.444 100.369C227.571 100.063 227.631 99.7331 227.622 99.402C227.612 99.0708 227.533 98.7454 227.389 98.4471C226.481 96.6767 222.918 96.1918 221.158 96.485C221.051 96.485 219.816 96.8515 219.14 97.0488C219.614 96.5583 220.093 96.079 220.561 95.5716C221.908 94.1056 223.228 92.5777 224.553 91.061L225.776 89.6796C225.928 89.9051 227.738 92.589 229.012 93.3727C230.14 94.0662 231.787 94.6356 233.095 94.1226C233.406 94.0118 233.691 93.8369 233.931 93.609C234.171 93.3812 234.36 93.1056 234.486 92.8C234.613 92.4944 234.674 92.1656 234.665 91.835C234.657 91.5043 234.579 91.1792 234.436 90.8806C233.529 89.1045 229.965 88.6253 228.206 88.9184C228.077 88.9184 226.295 89.4428 225.849 89.595C226.746 88.5802 227.654 87.5822 228.584 86.6293C229.854 85.3419 231.206 84.1384 232.632 83.0265C232.706 83.1336 234.583 85.9414 235.891 86.7421C237.019 87.4356 238.66 88.005 239.973 87.492C240.285 87.382 240.571 87.2074 240.811 86.9797C241.052 86.7521 241.241 86.4763 241.368 86.1704C241.494 85.8646 241.555 85.5355 241.546 85.2046C241.537 84.8737 241.458 84.5484 241.315 84.25C240.402 82.4796 236.838 81.9947 235.085 82.2879C234.966 82.2879 233.613 82.6938 232.971 82.8911L232.92 82.7897C234.367 81.7033 235.909 80.7485 237.526 79.9367C238.411 79.4744 239.28 79.091 240.137 78.7301C240.436 79.2939 241.828 81.8255 242.911 82.6769C243.993 83.5283 245.527 84.2387 246.886 83.8722C247.209 83.7981 247.512 83.6567 247.776 83.4572C248.041 83.2576 248.26 83.0046 248.419 82.7145C248.579 82.4244 248.676 82.1038 248.703 81.7738C248.73 81.4437 248.687 81.1117 248.577 80.7994C247.867 78.9331 244.377 78.0704 242.601 78.1663C242.505 78.1663 241.524 78.3298 240.813 78.4595C241.202 78.3016 241.603 78.1325 241.98 77.9915C243.384 77.4277 244.709 77.0499 245.882 76.7003C246.553 76.5086 247.162 76.3451 247.731 76.1985C248.295 76.5989 250.658 78.1663 251.994 78.4144C253.33 78.6625 255.033 78.5948 256.07 77.6419C256.322 77.4269 256.525 77.1613 256.668 76.8624C256.81 76.5636 256.887 76.2381 256.895 75.9073C256.903 75.5765 256.841 75.2477 256.714 74.9423C256.586 74.6369 256.396 74.3618 256.155 74.1349C254.667 72.8099 251.171 73.65 249.637 74.5522C249.508 74.6311 247.574 76.0858 247.602 76.1083H247.636C247.072 76.238 246.508 76.3846 245.848 76.5537C244.664 76.8751 243.328 77.2529 241.902 77.7603C240.364 78.2942 238.858 78.9155 237.391 79.621C235.724 80.4115 234.132 81.3493 232.632 82.4232L232.581 82.4626C232.925 81.9947 233.856 80.6471 233.912 80.5344C234.752 78.9669 235.457 75.4599 234.07 74.0053C233.833 73.7744 233.55 73.5958 233.24 73.4812C232.93 73.3665 232.599 73.3182 232.269 73.3394C231.939 73.3607 231.617 73.451 231.324 73.6046C231.031 73.7581 230.774 73.9715 230.569 74.2308C229.661 75.3077 229.672 77.0499 229.96 78.3354C230.292 79.8014 232.254 82.3893 232.412 82.598C230.928 83.7176 229.519 84.9343 228.195 86.2403C227.422 86.9958 226.667 87.7852 225.94 88.5802C226.227 88.1686 226.503 87.7908 226.503 87.7401C227.344 86.167 228.048 82.6656 226.661 81.2053C226.424 80.9745 226.142 80.7959 225.832 80.6812C225.521 80.5665 225.191 80.5182 224.86 80.5395C224.53 80.5608 224.209 80.6511 223.916 80.8046C223.623 80.9582 223.365 81.1715 223.16 81.4308C222.247 82.5077 222.263 84.25 222.551 85.5355C222.839 86.821 224.479 89.0932 224.919 89.6852C224.632 89.9897 224.355 90.2998 224.062 90.6099C222.709 92.0984 221.361 93.5869 219.991 95.0134C219.512 95.5152 219.016 95.9888 218.525 96.4681C218.779 96.0959 218.993 95.7858 219.021 95.7351C219.862 94.162 220.561 90.6607 219.174 89.206C218.938 88.974 218.655 88.7943 218.345 88.6787C218.035 88.563 217.704 88.514 217.374 88.5347C217.044 88.5554 216.721 88.6455 216.428 88.7991C216.135 88.9526 215.878 89.1662 215.672 89.4259C214.765 90.5028 214.776 92.245 215.069 93.5305C215.362 94.8161 216.834 96.874 217.324 97.5732C216.811 98.0468 216.293 98.526 215.768 98.9602C215.402 99.2534 215.075 99.5578 214.691 99.8285L213.564 100.646C212.842 101.142 212.098 101.661 211.382 102.123C210.885 102.45 210.406 102.755 209.927 103.065C210.412 102.569 211.342 101.582 211.41 101.492C212.301 100.204 212.849 98.7094 213 97.1503C213.106 97.0128 213.198 96.8655 213.276 96.7105C213.434 96.4188 213.528 96.0972 213.553 95.7666C213.578 95.436 213.534 95.1039 213.422 94.7917C213.31 94.4795 213.134 94.1943 212.905 93.9547C212.676 93.7151 212.399 93.5264 212.092 93.4009C210.226 92.7017 207.271 94.7428 206.161 96.1354C206.093 96.2144 205.484 97.1898 205.112 97.8269C205.275 97.4266 205.439 97.0432 205.608 96.6316C205.935 95.8197 206.245 95.0021 206.578 94.1226C206.719 93.694 206.871 93.2599 207.018 92.8201C207.164 92.3803 207.283 91.9124 207.424 91.45C207.717 90.3844 207.987 89.2849 208.19 88.1742C208.901 88.4617 211.438 89.4484 212.774 89.4033C214.111 89.3582 215.83 88.9015 216.642 87.7739C216.842 87.5098 216.984 87.2065 217.058 86.8839C217.133 86.5613 217.139 86.2266 217.076 85.9016C217.012 85.5766 216.881 85.2685 216.691 84.9975C216.501 84.7266 216.255 84.4987 215.971 84.3289C214.235 83.3478 210.998 84.8927 209.696 86.1275C209.611 86.2064 208.771 87.1762 208.32 87.7231C208.455 87.0522 208.585 86.3869 208.698 85.7046C209.014 83.7369 209.262 81.7579 209.538 79.745C209.617 79.1304 209.707 78.5271 209.792 77.9182C210.045 78.0197 213.034 79.2601 214.533 79.2094C215.858 79.1643 217.539 78.7358 218.351 77.5855C218.55 77.3207 218.691 77.017 218.765 76.6941C218.839 76.3712 218.845 76.0364 218.782 75.7112C218.719 75.3859 218.588 75.0776 218.398 74.8061C218.208 74.5346 217.963 74.3059 217.68 74.1349C215.943 73.1595 212.707 74.7326 211.404 75.9392C211.303 76.0294 210.096 77.4333 209.809 77.8054C210 76.4635 210.203 75.1273 210.457 73.8248C210.78 72.0575 211.219 70.3134 211.771 68.6038C211.889 68.6546 215.001 69.957 216.535 69.9062C217.86 69.8611 219.54 69.4326 220.352 68.2824C220.552 68.0183 220.694 67.7151 220.768 67.3925C220.843 67.0699 220.849 66.7352 220.786 66.4101C220.722 66.0851 220.591 65.7771 220.401 65.5061C220.211 65.2351 219.965 65.0073 219.681 64.8374C217.945 63.862 214.708 65.4295 213.406 66.6361C213.321 66.715 212.397 67.7637 211.974 68.3275L211.872 68.2711C212.477 66.567 213.232 64.9198 214.127 63.3489C214.612 62.4807 215.125 61.6575 215.639 60.9019C216.202 61.2064 218.751 62.5596 220.149 62.6667C221.547 62.7738 223.194 62.5258 224.124 61.4714C224.351 61.2304 224.526 60.9444 224.635 60.6317C224.745 60.3191 224.788 59.9869 224.76 59.6567C224.733 59.3265 224.637 59.0057 224.478 58.7151C224.319 58.4245 224.1 58.1707 223.837 57.9701C222.218 56.8086 218.83 58.0152 217.398 59.0977C217.319 59.1541 216.591 59.825 216.073 60.3268C216.309 59.9829 216.552 59.6221 216.783 59.295C217.663 58.0715 218.542 57.0003 219.332 56.0643C219.783 55.5343 220.2 55.0607 220.595 54.6266C221.299 54.6266 224.118 54.6266 225.37 54.1191C226.622 53.6117 228.009 52.5912 228.347 51.2267C228.438 50.9085 228.461 50.5746 228.415 50.2468C228.368 49.9191 228.253 49.6048 228.077 49.3245C227.901 49.0442 227.668 48.8041 227.393 48.6199C227.118 48.4357 226.807 48.3114 226.481 48.2553C224.508 47.9734 222.055 50.6008 221.277 52.2021C221.209 52.3374 220.397 54.6209 220.437 54.6209H220.476C220.087 55.0325 219.676 55.4836 219.23 55.9797C218.424 56.8988 217.539 57.9531 216.608 59.1654C215.616 60.4589 214.699 61.8087 213.862 63.208C212.918 64.7715 212.116 66.417 211.466 68.1246C211.463 68.1451 211.463 68.166 211.466 68.1866C211.5 67.6227 211.528 65.9707 211.517 65.8411C211.353 64.0706 209.995 60.7666 208.049 60.3099C207.723 60.2444 207.386 60.2486 207.061 60.3224C206.736 60.3962 206.431 60.5378 206.165 60.738C205.898 60.9382 205.678 61.1925 205.517 61.484C205.356 61.7756 205.258 62.098 205.23 62.4299C205.084 63.7718 206.048 65.2208 207.006 66.1342Z" fill="#263238"/>
<path d="M154.755 86.1957C156.221 85.6319 158.702 83.1792 158.702 83.1792C158.702 83.1792 156.576 82.0516 156.446 81.9895C154.783 81.3637 151.197 81.1325 149.957 82.6943C149.758 82.9586 149.618 83.2618 149.544 83.584C149.47 83.9062 149.465 84.2404 149.529 84.5648C149.593 84.8891 149.724 85.1964 149.914 85.4667C150.104 85.737 150.35 85.9643 150.633 86.1337C151.789 86.8948 153.509 86.6467 154.755 86.1957Z" fill="#263238"/>
<path d="M180.821 62.2486C180.861 62.2486 179.694 60.1286 179.581 59.9933C178.538 58.5499 175.674 56.3791 173.779 56.9937C173.467 57.1048 173.182 57.2803 172.943 57.5089C172.703 57.7375 172.514 58.014 172.389 58.3205C172.263 58.6269 172.204 58.9563 172.214 59.2873C172.224 59.6182 172.304 59.9433 172.449 60.2413C173.012 61.5325 174.58 62.2824 175.877 62.5869C177.376 62.9646 180.821 62.2486 180.821 62.2486Z" fill="#263238"/>
<path d="M162.644 92.6744C163.868 91.8005 165.491 88.987 165.621 88.7614C167.228 89.6941 168.895 90.5191 170.611 91.231C171.609 91.6539 172.629 92.0429 173.656 92.4263C173.159 92.3192 172.714 92.229 172.652 92.2233C170.882 92.0598 167.358 92.7872 166.574 94.6196C166.453 94.9276 166.398 95.2575 166.413 95.5881C166.427 95.9187 166.511 96.2425 166.659 96.5386C166.807 96.8347 167.015 97.0964 167.27 97.3068C167.526 97.5172 167.822 97.6717 168.141 97.7601C169.483 98.1773 171.079 97.4951 172.161 96.7227C173.244 95.9502 174.693 93.5652 175.06 92.9338L176.244 93.3623C178.144 94.0332 180.044 94.6985 181.882 95.4033C182.53 95.657 183.156 95.922 183.788 96.1927C183.353 96.0968 182.981 96.0235 182.925 96.0179C181.149 95.8544 177.631 96.5817 176.847 98.4085C176.724 98.7163 176.667 99.0467 176.681 99.3779C176.694 99.7091 176.777 100.034 176.924 100.331C177.072 100.628 177.28 100.89 177.536 101.101C177.792 101.312 178.089 101.466 178.409 101.555C179.756 101.972 181.346 101.29 182.429 100.517C183.511 99.7448 184.819 97.591 185.248 96.8411C185.885 97.1343 186.528 97.4049 187.131 97.7375C187.537 97.9631 187.949 98.1491 188.349 98.3972L189.533 99.0964C190.272 99.57 191.033 100.049 191.737 100.528C192.234 100.861 192.702 101.183 193.17 101.51C192.527 101.256 191.258 100.782 191.145 100.754C189.42 100.32 185.829 100.5 184.774 102.197C184.608 102.483 184.503 102.8 184.467 103.129C184.431 103.458 184.465 103.79 184.566 104.105C184.667 104.42 184.833 104.71 185.054 104.956C185.274 105.203 185.544 105.4 185.845 105.535C187.114 106.155 188.789 105.721 189.978 105.124C191.281 104.464 193.249 102.034 193.491 101.741C194.263 102.305 195.013 102.812 195.712 103.325C197.748 104.814 199.445 106.144 200.736 107.204L201.7 106.285C200.353 105.231 198.56 103.872 196.4 102.338C195.617 101.775 194.765 101.211 193.886 100.647C194.302 99.7296 194.664 98.7882 194.968 97.8278C196.468 97.918 199.248 97.0384 199.608 96.9256C199.958 97.7996 200.291 98.6566 200.59 99.4741C201.447 101.791 202.112 103.81 202.608 105.389L203.657 104.379C203.149 102.897 202.495 101.087 201.689 99.0513C201.339 98.1604 200.95 97.2132 200.533 96.2321C200.86 96.0292 203.504 94.3546 204.311 93.1311C205.044 92.0034 205.67 90.4022 205.202 89.0772C205.102 88.7613 204.937 88.47 204.717 88.2221C204.498 87.9743 204.228 87.7756 203.927 87.6388C203.625 87.5021 203.298 87.4305 202.967 87.4287C202.636 87.4268 202.308 87.4948 202.005 87.6282C200.2 88.4739 199.608 92.0204 199.84 93.7851C199.84 93.8923 200.122 95.003 200.308 95.7021C200.138 95.3075 199.975 94.9241 199.795 94.5181C199.445 93.7175 199.067 92.9281 198.667 92.0767C198.464 91.6708 198.25 91.2648 198.041 90.8532C197.832 90.4416 197.573 90.03 197.342 89.6072C196.778 88.6543 196.163 87.7127 195.521 86.7881C196.226 86.4779 198.701 85.3447 199.597 84.3523C200.494 83.36 201.351 81.8659 201.086 80.4845C201.036 80.157 200.918 79.8436 200.738 79.5649C200.559 79.2862 200.324 79.0484 200.046 78.867C199.769 78.6856 199.457 78.5646 199.13 78.5121C198.803 78.4595 198.468 78.4764 198.148 78.5618C196.237 79.1257 195.109 82.5424 195.07 84.3241C195.07 84.4369 195.182 85.7168 195.256 86.4159C194.867 85.8521 194.483 85.2883 194.072 84.7244C192.876 83.1288 191.625 81.5501 190.379 79.9714C189.995 79.4865 189.617 79.0016 189.251 78.5111C189.499 78.404 192.47 77.1184 193.474 76.0133C194.365 75.0266 195.228 73.5212 194.968 72.1399C194.918 71.8122 194.799 71.4989 194.619 71.2204C194.439 70.9419 194.203 70.7044 193.925 70.5235C193.647 70.3426 193.335 70.2223 193.007 70.1705C192.68 70.1187 192.345 70.1365 192.025 70.2229C190.119 70.7867 188.992 74.2035 188.952 75.9851C188.952 76.1148 189.116 77.9585 189.178 78.4265C188.349 77.3552 187.531 76.2783 186.77 75.1902C185.732 73.7211 184.79 72.1861 183.951 70.595C184.064 70.5442 187.176 69.2192 188.202 68.0803C189.093 67.0993 189.956 65.5938 189.696 64.2125C189.645 63.8851 189.526 63.5722 189.346 63.294C189.166 63.0157 188.929 62.7783 188.652 62.5971C188.375 62.4159 188.062 62.2949 187.735 62.242C187.408 62.189 187.074 62.2053 186.753 62.2898C184.842 62.8536 183.72 66.2761 183.68 68.0521C183.68 68.1705 183.799 69.5745 183.878 70.2398L183.765 70.2736C182.966 68.6431 182.313 66.945 181.814 65.1992C181.527 64.2463 181.307 63.3216 181.109 62.4139C181.718 62.2222 184.464 61.3313 185.507 60.4123C186.55 59.4932 187.526 58.157 187.413 56.7305C187.402 56.3976 187.32 56.0709 187.173 55.7718C187.027 55.4727 186.819 55.208 186.562 54.995C186.306 54.782 186.008 54.6256 185.687 54.536C185.366 54.4464 185.03 54.4257 184.701 54.4752C182.739 54.8304 181.25 58.1006 181.014 59.8654C181.014 59.9612 180.974 60.9536 180.968 61.6753C180.889 61.2637 180.794 60.8408 180.726 60.4461C180.455 58.9576 180.303 57.5875 180.162 56.3697C180.094 55.6705 180.049 55.0447 180.01 54.4583C180.506 53.9621 182.485 51.9493 182.97 50.675C183.455 49.4008 183.714 47.7206 182.97 46.5253C182.805 46.2382 182.581 45.9892 182.313 45.7944C182.045 45.5997 181.739 45.4635 181.416 45.3949C181.092 45.3263 180.757 45.3267 180.433 45.3961C180.109 45.4656 179.804 45.6025 179.536 45.7979C177.958 47.0158 178.138 50.6074 178.741 52.2819C178.792 52.4229 179.869 54.5936 179.897 54.5711L179.925 54.5372C179.925 55.101 179.982 55.7156 180.032 56.3753C180.134 57.5988 180.258 58.9858 180.495 60.4799C180.73 62.094 181.061 63.6925 181.487 65.2668C181.951 67.0328 182.572 68.7537 183.342 70.4089L183.376 70.4653C182.976 70.0368 181.825 68.8809 181.73 68.7738C180.343 67.6462 177.005 66.3155 175.341 67.415C175.07 67.6043 174.841 67.8487 174.67 68.1324C174.499 68.4162 174.389 68.7327 174.349 69.0615C174.308 69.3903 174.338 69.7239 174.435 70.0406C174.532 70.3573 174.695 70.6499 174.913 70.8994C175.804 71.9876 177.507 72.2977 178.86 72.247C180.359 72.1962 183.269 70.7472 183.5 70.6288C184.329 72.296 185.271 73.9047 186.319 75.4439C186.917 76.346 187.554 77.2312 188.197 78.1164C187.841 77.7556 187.526 77.4398 187.475 77.4004C186.088 76.2727 182.75 74.9421 181.087 76.0415C180.815 76.2308 180.586 76.4753 180.415 76.759C180.244 77.0427 180.135 77.3593 180.094 77.688C180.054 78.0168 180.083 78.3504 180.18 78.6671C180.278 78.9838 180.44 79.2765 180.658 79.526C181.549 80.6142 183.252 80.9243 184.605 80.8792C185.958 80.834 188.456 79.6444 189.116 79.3174C189.369 79.6557 189.612 79.9939 189.866 80.3266C191.078 81.9392 192.296 83.5404 193.44 85.1417C193.846 85.7055 194.224 86.2693 194.602 86.8332L193.976 86.2073C192.589 85.0797 189.251 83.7547 187.588 84.8485C187.316 85.0378 187.087 85.2822 186.916 85.5659C186.745 85.8496 186.636 86.1662 186.595 86.495C186.555 86.8238 186.584 87.1574 186.681 87.4741C186.778 87.7908 186.941 88.0834 187.159 88.3329C188.044 89.4268 189.753 89.7369 191.106 89.6861C192.459 89.6354 194.714 88.5585 195.498 88.1863C195.87 88.784 196.242 89.3816 196.575 89.9737C196.789 90.3853 197.026 90.7687 197.223 91.1915C197.421 91.6144 197.629 92.0204 197.827 92.4319C198.182 93.2326 198.548 94.0558 198.875 94.8451C199.107 95.4089 199.315 95.922 199.53 96.452C199.135 95.8882 198.334 94.7605 198.261 94.7042C197.159 93.5891 195.791 92.774 194.286 92.3361C194.171 92.2066 194.042 92.0894 193.903 91.9865C193.645 91.7781 193.346 91.6264 193.025 91.5414C192.705 91.4564 192.37 91.4399 192.043 91.4932C191.715 91.5464 191.403 91.668 191.126 91.8502C190.849 92.0324 190.614 92.271 190.435 92.5504C189.403 94.2418 190.858 97.5402 192.025 98.8821C192.093 98.961 192.938 99.7391 193.474 100.224C193.113 99.9872 192.769 99.756 192.397 99.5192C191.659 99.0456 190.909 98.5889 190.108 98.104L188.907 97.4274C188.512 97.1906 188.061 96.9933 187.638 96.779C186.64 96.2885 185.609 95.8431 184.56 95.4146C184.972 94.7718 186.409 92.4601 186.612 91.1408C186.815 89.8214 186.702 88.0961 185.721 87.0869C185.5 86.8406 185.229 86.6437 184.926 86.5089C184.624 86.3741 184.296 86.3045 183.965 86.3045C183.634 86.3045 183.306 86.3741 183.004 86.5089C182.701 86.6437 182.43 86.8406 182.209 87.0869C180.929 88.6148 181.876 92.0824 182.823 93.5878C182.88 93.6836 183.686 94.7154 184.137 95.2285C183.5 94.9804 182.868 94.7267 182.22 94.4899C180.348 93.819 178.431 93.1931 176.52 92.5616L174.772 91.9978C174.919 91.7723 176.689 89.0603 176.914 87.5774C177.112 86.2637 177.005 84.5327 176.024 83.5291C175.802 83.2829 175.531 83.086 175.229 82.9512C174.926 82.8164 174.599 82.7467 174.267 82.7467C173.936 82.7467 173.609 82.8164 173.306 82.9512C173.003 83.086 172.733 83.2829 172.511 83.5291C171.231 85.0571 172.178 88.5303 173.126 90.0357C173.193 90.1485 174.349 91.5918 174.665 91.9471C173.379 91.5073 172.105 91.0675 170.87 90.577C169.197 89.9287 167.566 89.1754 165.988 88.3217C166.055 88.2145 167.916 85.3898 168.147 83.8787C168.35 82.565 168.237 80.8341 167.256 79.8248C167.035 79.5785 166.764 79.3816 166.461 79.2468C166.159 79.112 165.831 79.0424 165.5 79.0424C165.169 79.0424 164.841 79.112 164.538 79.2468C164.236 79.3816 163.965 79.5785 163.744 79.8248C162.464 81.3528 163.411 84.8203 164.358 86.3257C164.42 86.4272 165.3 87.5267 165.728 88.0172L165.655 88.1074C164.093 87.1938 162.615 86.1428 161.24 84.9669C160.473 84.3298 159.774 83.6757 159.114 83.0273C159.515 82.5368 161.319 80.2759 161.674 78.9396C162.029 77.6033 162.103 75.9231 161.234 74.8124C161.04 74.5442 160.792 74.3198 160.505 74.154C160.219 73.9882 159.901 73.8847 159.571 73.8501C159.242 73.8155 158.909 73.8507 158.594 73.9534C158.28 74.056 157.99 74.2238 157.744 74.4459C156.301 75.8273 156.865 79.3794 157.637 80.9806C157.682 81.0652 158.201 81.9053 158.601 82.5086C158.308 82.2098 157.998 81.911 157.722 81.6178C156.679 80.5296 155.788 79.4696 155.015 78.5224C154.576 77.9585 154.192 77.4793 153.831 77.0113C153.978 76.3234 154.514 73.5551 154.22 72.2244C153.927 70.8938 153.206 69.3489 151.926 68.7625C151.618 68.6113 151.281 68.5288 150.938 68.5208C150.596 68.5129 150.255 68.5796 149.941 68.7164C149.626 68.8532 149.346 69.0568 149.118 69.313C148.89 69.5693 148.721 69.8721 148.622 70.2003C147.979 72.0891 150.11 74.9815 151.537 76.0472C151.661 76.1374 153.753 77.3552 153.764 77.3214C153.775 77.2876 153.764 77.2876 153.764 77.2763C154.096 77.7386 154.457 78.2292 154.891 78.7535C155.647 79.7177 156.515 80.8002 157.536 81.9166C158.623 83.1335 159.781 84.2857 161.003 85.3672C162.366 86.5829 163.834 87.6754 165.39 88.6318H165.452C164.888 88.4964 163.281 88.1581 163.157 88.1469C161.387 87.9834 157.863 88.7107 157.079 90.5375C156.957 90.8458 156.901 91.1763 156.916 91.5075C156.93 91.8388 157.013 92.1633 157.161 92.4601C157.309 92.7568 157.518 93.0191 157.774 93.2299C158.03 93.4407 158.327 93.5953 158.647 93.6836C159.972 94.1291 161.59 93.4468 162.644 92.6744Z" fill="#263238"/>
<path d="M71.2873 254.864C72.336 255.225 74.1064 256.956 74.1064 256.956C74.1064 256.956 72.6066 257.796 72.5051 257.836C71.3268 258.309 68.7726 258.529 67.8649 257.435C67.7208 257.249 67.6173 257.034 67.5609 256.806C67.5045 256.577 67.4965 256.339 67.5374 256.107C67.5783 255.875 67.6671 255.655 67.7983 255.459C67.9294 255.263 68.1 255.097 68.299 254.971C69.1617 254.407 70.3908 254.554 71.2873 254.864Z" fill="#263238"/>
<path d="M90.2262 271.546C90.2262 271.546 89.4368 273.074 89.3748 273.164C88.6531 274.207 86.6402 275.797 85.2814 275.385C85.0584 275.309 84.8537 275.188 84.6804 275.028C84.5071 274.869 84.3691 274.675 84.2751 274.459C84.1811 274.242 84.1334 274.009 84.1348 273.774C84.1362 273.538 84.1869 273.305 84.2834 273.09C84.6725 272.166 85.7719 271.608 86.691 271.371C87.7679 271.095 90.2262 271.546 90.2262 271.546Z" fill="#263238"/>
<path d="M76.8123 250.158C77.6975 250.761 78.8984 252.746 78.9943 252.904C80.1266 252.213 81.3038 251.599 82.5182 251.066C83.223 250.755 83.9447 250.457 84.6664 250.175C84.3168 250.254 84.0011 250.327 83.956 250.327C82.6986 250.474 80.1783 250.011 79.5863 248.714C79.4977 248.497 79.4554 248.263 79.4621 248.029C79.4687 247.794 79.5242 247.563 79.625 247.351C79.7258 247.139 79.8696 246.95 80.0474 246.796C80.2252 246.643 80.433 246.528 80.6576 246.459C81.6105 246.138 82.755 246.6 83.5387 247.136C84.3225 247.671 85.3937 249.352 85.6644 249.797L86.5045 249.47C87.8464 248.963 89.1883 248.461 90.4907 247.931C90.953 247.745 91.3985 247.542 91.8439 247.367L91.2293 247.502C89.9664 247.643 87.4461 247.181 86.8597 245.884C86.7711 245.667 86.7288 245.433 86.7354 245.198C86.7421 244.963 86.7976 244.733 86.8984 244.52C86.9991 244.308 87.143 244.119 87.3208 243.966C87.4985 243.812 87.7064 243.698 87.9309 243.629C88.8782 243.307 90.0227 243.775 90.8065 244.305C91.5902 244.835 92.5543 246.358 92.887 246.888C93.3324 246.668 93.7891 246.448 94.212 246.217C94.4995 246.053 94.7758 245.912 95.069 245.732L95.9034 245.213C96.4222 244.869 96.9634 244.508 97.4596 244.159L98.4407 243.392C97.984 243.584 97.0875 243.956 97.0085 243.956C95.785 244.288 93.2196 244.209 92.4472 243.02C92.3249 242.818 92.2462 242.593 92.2162 242.358C92.1862 242.124 92.2055 241.886 92.2729 241.66C92.3404 241.434 92.4545 241.224 92.6078 241.045C92.7611 240.865 92.9503 240.72 93.1632 240.618C94.0541 240.161 95.255 240.443 96.112 240.855C96.9691 241.266 98.4858 243.009 98.6662 243.223C99.23 242.828 99.7374 242.433 100.228 242.061C101.654 240.967 102.844 239.986 103.752 239.242L104.451 239.885C103.504 240.652 102.246 241.65 100.73 242.755C100.166 243.161 99.6021 243.584 98.965 244.007C99.2741 244.654 99.5452 245.318 99.7769 245.997C100.905 246.031 102.022 246.221 103.098 246.561C103.335 245.929 103.56 245.315 103.758 244.728C104.321 243.065 104.784 241.616 105.111 240.483L105.872 241.182C105.534 242.247 105.094 243.55 104.553 245.016C104.316 245.653 104.051 246.335 103.769 247.034C104.006 247.17 105.917 248.325 106.509 249.188C107.101 250.051 107.518 251.111 107.202 252.064C107.135 252.289 107.021 252.498 106.868 252.677C106.715 252.856 106.526 253.001 106.314 253.103C106.102 253.205 105.871 253.262 105.635 253.269C105.4 253.276 105.165 253.235 104.947 253.146C103.65 252.582 103.171 250.045 103.306 248.782C103.306 248.709 103.493 247.914 103.617 247.412C103.498 247.694 103.391 247.976 103.267 248.263C103.03 248.827 102.771 249.391 102.5 250.023C102.359 250.31 102.218 250.586 102.072 250.902C101.925 251.218 101.75 251.5 101.592 251.799C101.203 252.492 100.781 253.169 100.335 253.845C100.843 254.06 102.624 254.832 103.278 255.537C103.932 256.242 104.564 257.285 104.406 258.277C104.373 258.51 104.292 258.733 104.168 258.933C104.044 259.133 103.879 259.304 103.685 259.437C103.491 259.57 103.271 259.66 103.04 259.703C102.809 259.746 102.571 259.741 102.342 259.686C100.972 259.314 100.115 256.896 100.087 255.627C100.087 255.548 100.143 254.635 100.189 254.133C99.9179 254.539 99.6247 254.939 99.3653 255.339C98.5365 256.495 97.6738 257.64 96.7999 258.784C96.5349 259.134 96.2756 259.489 96.0162 259.839C96.1966 259.912 98.3335 260.786 99.0665 261.564C99.7149 262.252 100.352 263.312 100.194 264.299C100.161 264.532 100.08 264.756 99.9556 264.956C99.8312 265.157 99.6662 265.328 99.4714 265.461C99.2766 265.594 99.0561 265.684 98.8243 265.727C98.5924 265.77 98.3542 265.763 98.1249 265.708C96.7548 265.336 95.9034 262.917 95.8696 261.649C95.8696 261.553 95.9542 260.239 95.9936 259.906C95.4298 260.679 94.866 261.457 94.3022 262.246C93.5871 263.31 92.9393 264.417 92.3626 265.562C92.4472 265.595 94.6856 266.498 95.4355 267.293C96.0839 267.98 96.721 269.04 96.5631 270.033C96.5303 270.266 96.4491 270.49 96.3246 270.69C96.2001 270.891 96.0352 271.063 95.8404 271.195C95.6455 271.328 95.4251 271.419 95.1932 271.461C94.9613 271.504 94.7231 271.497 94.4939 271.442C93.1238 271.065 92.2724 268.623 92.2386 267.383C92.2386 267.298 92.3006 266.295 92.3457 265.821H92.2668C91.7211 266.99 91.2814 268.205 90.953 269.452C90.7613 270.134 90.6147 270.799 90.4907 271.454C90.9249 271.578 92.8982 272.17 93.6538 272.812C94.4093 273.455 95.1254 274.408 95.069 275.406C95.0621 275.642 95.0062 275.873 94.9046 276.086C94.8031 276.298 94.6582 276.488 94.4793 276.641C94.3004 276.794 94.0914 276.909 93.8658 276.977C93.6401 277.045 93.4027 277.065 93.1689 277.035C91.7649 276.816 90.6542 274.504 90.4569 273.252C90.4569 273.184 90.4174 272.48 90.4005 271.961C90.3498 272.26 90.2877 272.559 90.2483 272.841C90.0791 273.906 89.9889 274.887 89.9156 275.756C89.8761 276.252 89.8536 276.703 89.8367 277.12C90.1975 277.47 91.6353 278.873 92.0018 279.776C92.3682 280.678 92.5656 281.867 92.0638 282.73C91.9486 282.935 91.7918 283.114 91.6035 283.255C91.4153 283.396 91.1996 283.497 90.9704 283.55C90.7412 283.603 90.5034 283.607 90.2722 283.563C90.0411 283.519 89.8217 283.428 89.6281 283.294C88.5004 282.454 88.5568 279.911 88.9627 278.687C89.0022 278.58 89.7352 276.996 89.7521 277.035C89.7521 276.629 89.7521 276.195 89.8028 275.722C89.8536 274.848 89.9212 273.861 90.0678 272.795C90.2153 271.642 90.428 270.497 90.705 269.367C91.0106 268.1 91.4276 266.863 91.951 265.669C91.9529 265.656 91.9529 265.642 91.951 265.629C91.6747 265.939 90.8741 266.785 90.8234 266.841C89.8479 267.659 87.4912 268.663 86.2846 267.907C86.089 267.775 85.9232 267.603 85.798 267.403C85.6727 267.203 85.5907 266.979 85.5573 266.745C85.5238 266.512 85.5396 266.274 85.6037 266.046C85.6678 265.819 85.7787 265.608 85.9294 265.426C86.5496 264.637 87.7562 264.394 88.709 264.406C89.7747 264.406 91.8721 265.415 92.0356 265.494C92.5897 264.288 93.2225 263.121 93.93 261.998C94.3473 261.344 94.7871 260.701 95.2325 260.064C94.9844 260.324 94.7589 260.555 94.725 260.583C93.7553 261.401 91.3928 262.404 90.2144 261.649C90.0189 261.516 89.8531 261.345 89.7278 261.145C89.6026 260.945 89.5206 260.721 89.4871 260.487C89.4537 260.253 89.4695 260.015 89.5336 259.788C89.5977 259.561 89.7086 259.35 89.8592 259.168C90.4738 258.378 91.686 258.136 92.6332 258.147C93.5805 258.159 95.4016 258.97 95.8752 259.19L96.394 258.463C97.2341 257.296 98.0854 256.134 98.8748 254.973C99.1511 254.567 99.4386 254.15 99.6754 253.738C99.4555 253.969 99.2695 254.167 99.2356 254.189C98.2602 255.007 95.9034 256.01 94.725 255.255C94.5303 255.123 94.3653 254.951 94.2406 254.752C94.1159 254.552 94.0342 254.329 94.0008 254.096C93.9674 253.863 93.9829 253.625 94.0465 253.399C94.11 253.172 94.2201 252.961 94.3698 252.78C94.9844 251.985 96.1966 251.742 97.1439 251.753C98.0911 251.765 99.7318 252.498 100.296 252.757C100.555 252.329 100.809 251.9 101.04 251.472C101.186 251.173 101.35 250.908 101.485 250.592C101.621 250.276 101.762 249.994 101.897 249.701C102.134 249.137 102.387 248.528 102.607 247.965C102.765 247.57 102.906 247.192 103.047 246.809C102.776 247.22 102.224 248.01 102.168 248.072C101.404 248.885 100.442 249.488 99.3766 249.82C99.2934 249.911 99.2029 249.996 99.106 250.073C98.9253 250.225 98.715 250.337 98.4885 250.402C98.262 250.468 98.0243 250.485 97.7907 250.453C97.5571 250.421 97.3327 250.341 97.132 250.217C96.9313 250.094 96.7586 249.929 96.6251 249.735C95.864 248.534 96.8563 246.172 97.6626 245.191C97.7133 245.134 98.2997 244.57 98.6775 244.215C98.4237 244.39 98.1813 244.559 97.9163 244.734C97.4032 245.083 96.8732 245.416 96.3094 245.777L95.4637 246.279C95.1874 246.454 94.866 246.6 94.5672 246.758C93.868 247.124 93.1351 247.457 92.3908 247.773C92.6953 248.23 93.7553 249.859 93.9188 250.795C94.0823 251.731 94.0315 252.966 93.3549 253.699C93.1988 253.875 93.0074 254.017 92.7932 254.116C92.5789 254.214 92.3464 254.266 92.1107 254.269C91.875 254.273 91.6412 254.226 91.4244 254.134C91.2076 254.042 91.0124 253.905 90.8516 253.732C89.9212 252.661 90.5414 250.175 91.1955 249.087C91.235 249.019 91.7931 248.292 92.1032 247.897C91.6578 248.089 91.2124 248.275 90.7501 248.461C89.4251 248.968 88.0663 249.442 86.7131 249.921C86.3015 250.062 85.8899 250.214 85.4783 250.366C85.5854 250.524 86.8879 252.43 87.0683 253.484C87.2318 254.415 87.1811 255.65 86.5045 256.382C86.3487 256.559 86.158 256.7 85.9445 256.798C85.731 256.897 85.4993 256.949 85.2643 256.953C85.0293 256.957 84.7961 256.911 84.5795 256.82C84.363 256.729 84.1679 256.593 84.0067 256.422C83.0708 255.351 83.691 252.864 84.345 251.776C84.3901 251.691 85.1964 250.648 85.4106 250.389C84.5029 250.722 83.6008 251.054 82.7268 251.426C81.5416 251.912 80.3906 252.477 79.2819 253.118C79.3326 253.191 80.6971 255.176 80.8888 256.253C81.0466 257.183 80.9959 258.418 80.3249 259.151C80.1692 259.328 79.9781 259.47 79.7641 259.569C79.55 259.668 79.3177 259.721 79.082 259.724C78.8462 259.728 78.6124 259.683 78.3953 259.591C78.1782 259.499 77.9828 259.362 77.8215 259.19C76.8856 258.119 77.5058 255.633 78.1598 254.544C78.2049 254.471 78.8139 253.676 79.1127 253.304L79.0563 253.242C77.9563 253.915 76.9185 254.685 75.9553 255.542C75.4196 256.01 74.9348 256.484 74.4724 256.958C74.76 257.302 76.0793 258.886 76.3556 259.833C76.6319 260.78 76.7052 261.981 76.1075 262.782C75.9718 262.975 75.7972 263.138 75.5949 263.259C75.3926 263.381 75.1672 263.459 74.933 263.488C74.6988 263.517 74.4611 263.497 74.2351 263.429C74.0092 263.361 73.8 263.246 73.621 263.092C72.5723 262.134 72.9163 259.596 73.4463 258.44C73.4744 258.378 73.8409 257.775 74.1116 257.313C73.9086 257.527 73.6887 257.747 73.497 257.961C72.7697 258.751 72.1551 259.523 71.6138 260.216C71.3094 260.606 71.05 260.972 70.7963 261.31C70.909 261.795 71.3319 263.763 71.1402 264.693C70.9485 265.624 70.4636 266.757 69.5559 267.191C69.3471 267.299 69.1181 267.363 68.8834 267.378C68.6487 267.393 68.4135 267.358 68.1928 267.277C67.972 267.196 67.7707 267.07 67.6015 266.906C67.4324 266.743 67.2991 266.546 67.2103 266.328C66.7255 264.992 68.2027 262.895 69.2006 262.117C69.2909 262.049 70.7624 261.152 70.7681 261.175C70.9993 260.842 71.253 260.487 71.5349 260.109C72.0592 259.41 72.6625 258.621 73.373 257.815C74.1321 256.932 74.9416 256.094 75.7974 255.306C76.7354 254.443 77.7466 253.664 78.8195 252.977H78.859C78.4587 253.084 77.3197 253.349 77.2352 253.36C75.9722 253.501 73.4519 253.039 72.8655 251.742C72.7768 251.525 72.7343 251.292 72.7406 251.057C72.7469 250.823 72.8019 250.592 72.9021 250.38C73.0023 250.168 73.1455 249.979 73.3227 249.825C73.4999 249.672 73.7071 249.556 73.9311 249.487C74.884 249.132 76.0286 249.594 76.8123 250.158Z" fill="#263238"/>
<path d="M105.443 262.927C106.48 262.515 108.972 262.662 108.972 262.662C108.972 262.662 108.375 264.275 108.324 264.354C107.76 265.481 105.939 267.302 104.535 267.06C104.305 267.012 104.087 266.916 103.896 266.779C103.705 266.641 103.545 266.466 103.425 266.263C103.306 266.06 103.23 265.835 103.203 265.601C103.176 265.368 103.197 265.131 103.267 264.906C103.515 263.959 104.563 263.271 105.443 262.927Z" fill="#263238"/>
<path d="M130.68 263.293C130.68 263.293 131.074 264.984 131.086 265.075C131.215 266.338 130.725 268.852 129.394 269.422C129.175 269.51 128.94 269.551 128.704 269.543C128.468 269.535 128.236 269.478 128.024 269.375C127.812 269.272 127.623 269.125 127.471 268.945C127.318 268.765 127.205 268.555 127.139 268.328C126.829 267.375 127.308 266.231 127.849 265.458C128.52 264.545 130.68 263.293 130.68 263.293Z" fill="#263238"/>
<path d="M106.566 255.731C107.632 255.618 109.831 256.345 110.006 256.402C110.419 255.141 110.917 253.909 111.494 252.714C111.821 252.021 112.182 251.327 112.543 250.639C112.334 250.927 112.137 251.203 112.109 251.203C111.24 252.128 109.025 253.419 107.739 252.816C107.528 252.709 107.343 252.559 107.193 252.376C107.044 252.193 106.935 251.98 106.873 251.753C106.811 251.525 106.797 251.286 106.833 251.053C106.868 250.819 106.952 250.596 107.079 250.397C107.592 249.54 108.771 249.145 109.707 249.044C110.643 248.942 112.554 249.517 113.056 249.681L113.479 248.892C114.172 247.629 114.866 246.377 115.509 245.125C115.74 244.685 115.943 244.246 116.151 243.8C115.965 244.06 115.802 244.274 115.774 244.302C114.911 245.232 112.689 246.518 111.404 245.915C111.194 245.808 111.009 245.658 110.86 245.475C110.712 245.293 110.603 245.081 110.541 244.854C110.479 244.627 110.465 244.389 110.5 244.156C110.535 243.923 110.618 243.7 110.744 243.501C111.263 242.639 112.436 242.25 113.377 242.148C114.319 242.047 116.039 242.565 116.631 242.757C116.828 242.295 117.031 241.838 117.194 241.381C117.307 241.071 117.437 240.778 117.527 240.457C117.617 240.135 117.73 239.831 117.826 239.521C117.995 238.917 118.17 238.303 118.322 237.711C118.429 237.299 118.519 236.905 118.615 236.51C118.395 236.95 117.944 237.807 117.899 237.874C117.183 238.923 115.187 240.53 113.823 240.13C113.599 240.056 113.393 239.935 113.218 239.777C113.044 239.618 112.904 239.425 112.809 239.21C112.713 238.994 112.664 238.761 112.664 238.525C112.663 238.289 112.713 238.056 112.808 237.841C113.186 236.916 114.285 236.346 115.204 236.104C116.213 235.833 118.407 236.194 118.683 236.239C118.841 235.585 118.987 234.948 119.111 234.345C119.489 232.586 119.754 231.069 119.946 229.891L120.893 229.93C120.679 231.125 120.369 232.698 119.935 234.525C119.777 235.191 119.602 235.901 119.41 236.628C120.065 236.916 120.701 237.244 121.316 237.609C122.199 236.914 123.175 236.345 124.214 235.918C123.983 235.281 123.752 234.672 123.526 234.097C122.883 232.456 122.28 231.063 121.79 229.986L122.827 230.026C123.261 231.058 123.774 232.326 124.31 233.798C124.552 234.435 124.789 235.129 125.032 235.839C125.302 235.794 127.501 235.427 128.51 235.692C129.429 235.935 130.529 236.499 130.912 237.429C131.008 237.645 131.057 237.878 131.057 238.114C131.056 238.349 131.007 238.583 130.911 238.798C130.816 239.014 130.676 239.207 130.502 239.365C130.327 239.524 130.121 239.644 129.897 239.718C128.533 240.124 126.514 238.517 125.821 237.463C125.776 237.401 125.392 236.679 125.161 236.222C125.257 236.51 125.353 236.786 125.449 237.096C125.64 237.688 125.821 238.286 126.013 238.929C126.092 239.244 126.176 239.56 126.255 239.876C126.334 240.192 126.402 240.541 126.475 240.874C126.627 241.646 126.751 242.441 126.853 243.242C127.371 243.073 129.226 242.503 130.174 242.605C131.121 242.706 132.288 243.095 132.807 243.958C132.933 244.157 133.017 244.379 133.052 244.612C133.088 244.844 133.074 245.082 133.013 245.309C132.951 245.536 132.843 245.748 132.695 245.931C132.547 246.114 132.362 246.264 132.153 246.371C130.867 246.98 128.646 245.695 127.783 244.77C127.727 244.708 127.18 243.975 126.887 243.563C126.943 244.048 127.005 244.528 127.05 245.018C127.174 246.433 127.253 247.871 127.343 249.303C127.343 249.743 127.4 250.177 127.428 250.617C127.614 250.555 129.807 249.828 130.867 249.94C131.809 250.042 132.982 250.431 133.5 251.288C133.628 251.487 133.712 251.71 133.748 251.943C133.784 252.176 133.771 252.414 133.709 252.642C133.647 252.87 133.539 253.082 133.39 253.266C133.242 253.449 133.056 253.599 132.846 253.707C131.561 254.31 129.339 253.03 128.471 252.1C128.409 252.032 127.62 250.972 127.433 250.696C127.501 251.66 127.574 252.618 127.687 253.56C127.835 254.832 128.063 256.094 128.369 257.338C128.46 257.309 130.743 256.543 131.826 256.661C132.767 256.757 133.94 257.152 134.459 258.009C134.586 258.207 134.67 258.43 134.706 258.664C134.742 258.897 134.729 259.135 134.668 259.363C134.606 259.591 134.497 259.803 134.349 259.986C134.2 260.17 134.015 260.32 133.805 260.427C132.519 261.031 130.298 259.751 129.435 258.821C129.379 258.759 128.775 257.952 128.499 257.563L128.426 257.597C128.77 258.842 129.227 260.054 129.79 261.217C130.089 261.86 130.41 262.457 130.737 263.032C131.149 262.846 133.038 262.012 134.025 262.012C135.011 262.012 136.184 262.265 136.787 263.066C136.935 263.249 137.042 263.461 137.103 263.689C137.164 263.916 137.177 264.153 137.141 264.386C137.104 264.618 137.02 264.84 136.894 265.038C136.767 265.236 136.6 265.406 136.404 265.536C135.192 266.28 132.846 265.248 131.893 264.408C131.843 264.363 131.33 263.844 131.014 263.466C131.166 263.72 131.318 263.991 131.47 264.233C132.034 265.152 132.598 265.953 133.111 266.663C133.404 267.064 133.675 267.419 133.94 267.752C134.436 267.752 136.443 267.909 137.323 268.355C138.203 268.8 139.116 269.578 139.291 270.565C139.338 270.796 139.336 271.035 139.285 271.265C139.234 271.495 139.136 271.712 138.996 271.903C138.856 272.093 138.679 272.251 138.474 272.369C138.269 272.486 138.042 272.559 137.808 272.584C136.393 272.685 134.78 270.689 134.306 269.511C134.267 269.409 133.81 267.746 133.839 267.746H133.867C133.607 267.436 133.337 267.097 133.049 266.72C132.519 266.021 131.922 265.226 131.358 264.318C130.719 263.347 130.137 262.34 129.615 261.301C129.024 260.14 128.537 258.929 128.161 257.682C128.161 257.682 128.161 257.648 128.161 257.636C128.161 258.054 128.093 259.215 128.076 259.328C127.868 260.58 126.729 262.874 125.325 263.083C125.09 263.11 124.853 263.087 124.628 263.017C124.403 262.946 124.195 262.83 124.017 262.674C123.84 262.518 123.697 262.328 123.598 262.113C123.499 261.899 123.446 261.667 123.442 261.431C123.396 260.427 124.158 259.452 124.885 258.849C125.708 258.166 127.947 257.558 128.127 257.507C127.775 256.229 127.509 254.93 127.332 253.616C127.225 252.85 127.14 252.077 127.061 251.299C127.061 251.66 127.028 251.981 127.016 252.026C126.808 253.278 125.669 255.573 124.265 255.782C124.025 255.814 123.782 255.794 123.551 255.725C123.32 255.655 123.106 255.536 122.924 255.377C122.743 255.218 122.597 255.022 122.498 254.802C122.398 254.582 122.347 254.343 122.348 254.101C122.303 253.103 123.064 252.128 123.791 251.519C124.518 250.91 126.43 250.352 126.932 250.211C126.932 249.912 126.881 249.613 126.853 249.314C126.734 247.882 126.622 246.456 126.469 245.058C126.419 244.561 126.345 244.076 126.278 243.597C126.278 243.913 126.244 244.161 126.238 244.223C126.03 245.475 124.891 247.775 123.481 247.978C123.247 248.004 123.01 247.981 122.786 247.91C122.561 247.839 122.354 247.722 122.177 247.567C122.001 247.411 121.858 247.221 121.76 247.007C121.661 246.793 121.608 246.561 121.604 246.326C121.558 245.328 122.32 244.353 123.047 243.749C123.774 243.146 125.5 242.622 126.097 242.458C126.013 241.968 125.928 241.472 125.821 240.998C125.742 240.677 125.686 240.361 125.59 240.039L125.319 239.098C125.127 238.5 124.936 237.886 124.755 237.311C124.62 236.91 124.479 236.532 124.344 236.149C124.4 236.64 124.496 237.604 124.496 237.683C124.44 238.797 124.098 239.879 123.504 240.823C123.504 240.948 123.493 241.073 123.47 241.195C123.431 241.428 123.343 241.65 123.213 241.847C123.083 242.044 122.914 242.212 122.715 242.339C122.517 242.466 122.293 242.551 122.06 242.587C121.827 242.623 121.589 242.61 121.361 242.549C120.002 242.131 119.219 239.69 119.202 238.421C119.202 238.348 119.275 237.536 119.337 237.023C119.252 237.316 119.179 237.587 119.094 237.908C118.931 238.512 118.745 239.109 118.531 239.752C118.429 240.056 118.322 240.367 118.215 240.677C118.108 240.987 117.972 241.308 117.848 241.624C117.55 242.357 117.211 243.084 116.856 243.811C117.38 243.958 119.247 244.505 119.98 245.114C120.713 245.723 121.474 246.687 121.429 247.691C121.425 247.926 121.373 248.159 121.274 248.373C121.176 248.588 121.034 248.779 120.857 248.935C120.68 249.091 120.473 249.209 120.248 249.28C120.023 249.351 119.786 249.374 119.551 249.348C118.142 249.14 117.003 246.851 116.788 245.599C116.788 245.52 116.726 244.601 116.709 244.099C116.49 244.533 116.275 244.967 116.039 245.401C115.362 246.648 114.64 247.894 113.919 249.134L113.27 250.262C113.456 250.312 115.689 250.916 116.507 251.592C117.324 252.269 118.001 253.171 117.961 254.175C117.957 254.41 117.904 254.643 117.805 254.857C117.706 255.071 117.563 255.262 117.385 255.418C117.208 255.573 117 255.69 116.775 255.76C116.55 255.831 116.312 255.853 116.078 255.827C114.674 255.624 113.53 253.329 113.321 252.077C113.321 251.981 113.231 250.668 113.231 250.329C112.757 251.169 112.289 252.021 111.861 252.861C111.283 254.005 110.777 255.184 110.344 256.39C110.434 256.39 112.763 257.033 113.603 257.727C114.336 258.336 115.097 259.305 115.052 260.309C115.048 260.544 114.995 260.776 114.896 260.99C114.797 261.204 114.655 261.394 114.478 261.55C114.301 261.705 114.094 261.822 113.87 261.893C113.645 261.964 113.408 261.987 113.174 261.961C111.77 261.758 110.626 259.463 110.412 258.212C110.412 258.133 110.344 257.129 110.333 256.65H110.248C109.851 257.877 109.564 259.138 109.391 260.416C109.284 261.121 109.222 261.798 109.182 262.457C109.628 262.531 111.658 262.874 112.486 263.416C113.315 263.957 114.144 264.82 114.212 265.823C114.234 266.058 114.206 266.295 114.131 266.519C114.056 266.743 113.935 266.949 113.776 267.123C113.616 267.297 113.422 267.436 113.206 267.531C112.99 267.625 112.756 267.674 112.52 267.673C111.099 267.622 109.701 265.468 109.363 264.25C109.363 264.183 109.228 263.483 109.149 262.976C109.149 263.275 109.109 263.585 109.103 263.867C109.064 264.944 109.103 265.93 109.132 266.804C109.132 267.3 109.188 267.746 109.222 268.163C109.622 268.462 111.223 269.68 111.697 270.531C112.171 271.383 112.526 272.538 112.12 273.457C112.032 273.676 111.899 273.873 111.73 274.037C111.561 274.201 111.36 274.328 111.139 274.41C110.918 274.491 110.683 274.526 110.448 274.512C110.213 274.497 109.984 274.434 109.774 274.326C108.534 273.627 108.297 271.072 108.551 269.815C108.551 269.708 109.115 268.067 109.115 268.079C109.075 267.673 109.036 267.238 109.002 266.77C108.946 265.897 108.889 264.904 108.906 263.827C108.907 262.665 108.977 261.503 109.115 260.348C109.265 259.054 109.527 257.775 109.898 256.526V256.481C109.662 256.825 108.968 257.761 108.906 257.828C108.043 258.758 105.828 260.044 104.542 259.441C104.332 259.334 104.147 259.184 103.999 259.001C103.85 258.819 103.741 258.607 103.679 258.38C103.617 258.153 103.603 257.915 103.638 257.682C103.673 257.449 103.756 257.226 103.882 257.028C104.452 256.227 105.625 255.838 106.566 255.731Z" fill="#263238"/>
<path d="M234.978 90.1602H77.518C75.3787 90.1602 73.6445 91.8944 73.6445 94.0336V247.107C73.6445 249.246 75.3787 250.98 77.518 250.98H234.978C237.117 250.98 238.851 249.246 238.851 247.107V94.0336C238.851 91.8944 237.117 90.1602 234.978 90.1602Z" fill="white" stroke="#263238" stroke-linecap="round" stroke-linejoin="round"/>
<path d="M235.085 90.1602H77.4222C76.4212 90.1602 75.4612 90.5574 74.753 91.2646C74.0447 91.9718 73.646 92.9312 73.6445 93.9321V100.591H238.834V93.9321C238.833 92.9361 238.438 91.9809 237.736 91.2745C237.034 90.5681 236.081 90.1676 235.085 90.1602Z" fill="#9760E0" stroke="#263238" stroke-linecap="round" stroke-linejoin="round"/>
<path d="M81.5713 95.1951C81.5724 95.5031 81.4821 95.8045 81.3118 96.0611C81.1415 96.3178 80.8988 96.5181 80.6146 96.6368C80.3303 96.7554 80.0172 96.787 79.715 96.7276C79.4128 96.6682 79.135 96.5205 78.9168 96.3031C78.6986 96.0856 78.5498 95.8084 78.4893 95.5064C78.4288 95.2043 78.4593 94.8912 78.5769 94.6065C78.6945 94.3218 78.894 94.0784 79.15 93.9072C79.406 93.7359 79.7071 93.6445 80.0151 93.6445C80.4264 93.646 80.8205 93.8097 81.1119 94.1C81.4032 94.3903 81.5683 94.7838 81.5713 95.1951Z" fill="white" stroke="#263238" stroke-linecap="round" stroke-linejoin="round"/>
<path d="M88.0947 95.1951C88.0958 95.5031 88.0055 95.8045 87.8352 96.0611C87.6649 96.3178 87.4223 96.5181 87.138 96.6368C86.8538 96.7554 86.5407 96.787 86.2385 96.7276C85.9362 96.6682 85.6584 96.5205 85.4402 96.3031C85.222 96.0856 85.0732 95.8084 85.0127 95.5064C84.9522 95.2043 84.9827 94.8912 85.1003 94.6065C85.218 94.3218 85.4174 94.0784 85.6734 93.9072C85.9295 93.7359 86.2305 93.6445 86.5386 93.6445C86.9503 93.6445 87.3453 93.8077 87.637 94.0983C87.9286 94.3889 88.0932 94.7833 88.0947 95.1951Z" fill="white" stroke="#263238" stroke-linecap="round" stroke-linejoin="round"/>
<path d="M94.6182 95.1951C94.6193 95.5033 94.5288 95.805 94.3583 96.0617C94.1877 96.3185 93.9447 96.5188 93.6601 96.6373C93.3756 96.7558 93.0622 96.7871 92.7598 96.7272C92.4574 96.6674 92.1796 96.519 91.9617 96.3011C91.7437 96.0831 91.5954 95.8053 91.5355 95.5029C91.4756 95.2005 91.5069 94.8872 91.6254 94.6026C91.7439 94.318 91.9442 94.075 92.201 93.9044C92.4578 93.7339 92.7594 93.6434 93.0676 93.6445C93.4784 93.646 93.8719 93.8099 94.1624 94.1003C94.4529 94.3908 94.6167 94.7843 94.6182 95.1951Z" fill="white" stroke="#263238" stroke-linecap="round" stroke-linejoin="round"/>
<path d="M158.771 119.582V109.022H156.605V107.832H162.244V109.022H160.079V119.582H158.771Z" fill="#263238"/>
<path d="M163.057 110.665C163.057 108.867 163.947 107.711 165.74 107.711C167.533 107.711 168.447 108.839 168.447 110.665V116.738C168.447 118.519 167.556 119.692 165.74 119.692C163.925 119.692 163.057 118.519 163.057 116.738V110.665ZM164.348 116.805C164.348 117.882 164.804 118.497 165.74 118.497C166.676 118.497 167.133 117.877 167.133 116.805V110.603C167.133 109.543 166.699 108.912 165.74 108.912C164.782 108.912 164.348 109.549 164.348 110.603V116.805Z" fill="#263238"/>
<path d="M172.437 107.832C174.264 107.832 175.104 108.96 175.104 110.753V116.678C175.104 118.471 174.264 119.582 172.437 119.582H169.686V107.832H172.437ZM172.437 118.387C173.379 118.387 173.83 117.823 173.83 116.729V110.685C173.83 109.608 173.379 109.022 172.42 109.022H171.011V118.387H172.437Z" fill="#263238"/>
<path d="M177.636 117.214L177.185 119.582H175.979L178.234 107.832H180.128L182.384 119.582H181.076L180.619 117.214H177.636ZM177.805 116.086H180.427L179.096 109.321L177.805 116.086Z" fill="#263238"/>
<path d="M184.656 115.365L182.17 107.832H183.529L185.361 113.606L187.205 107.832H188.445L185.948 115.365V119.582H184.656V115.365Z" fill="#263238"/>
<path d="M83.9507 108.151V108.32H83.291V108.111C83.291 107.548 83.0767 107.22 82.5749 107.22C82.0731 107.22 81.8645 107.553 81.8645 108.106C81.8645 109.504 83.9563 109.639 83.9563 111.393C83.9563 112.334 83.5052 112.949 82.5524 112.949C81.5995 112.949 81.1484 112.334 81.1484 111.393V111.038H81.8025V111.455C81.8025 112.019 82.0336 112.346 82.5298 112.346C83.026 112.346 83.2628 112.019 83.2628 111.455C83.2628 110.068 81.1766 109.932 81.1766 108.179C81.1766 107.215 81.6221 106.617 82.558 106.617C83.494 106.617 83.9507 107.204 83.9507 108.151Z" fill="#263238"/>
<path d="M87.3176 108.157V108.721H86.6579V108.123C86.6579 107.56 86.4381 107.221 85.9306 107.221C85.4232 107.221 85.1976 107.56 85.1976 108.123V111.422C85.1976 111.986 85.4288 112.318 85.9306 112.318C86.4324 112.318 86.6579 111.98 86.6579 111.422V110.61H87.3176V111.382C87.3176 112.33 86.8722 112.95 85.9137 112.95C84.9552 112.95 84.5098 112.33 84.5098 111.382V108.157C84.5098 107.216 84.9552 106.59 85.9137 106.59C86.8722 106.59 87.3176 107.216 87.3176 108.157Z" fill="#263238"/>
<path d="M88.6486 110.086V112.905H87.9551V106.652H88.6486V109.471H90.1822V106.652H90.8757V112.888H90.1822V110.069L88.6486 110.086Z" fill="#263238"/>
<path d="M93.8076 109.415V110.041H92.2853V112.257H94.1572V112.888H91.5918V106.652H94.1572V107.284H92.2853V109.415H93.8076Z" fill="#263238"/>
<path d="M96.2591 106.652C97.2289 106.652 97.6743 107.216 97.6743 108.203V111.349C97.6743 112.302 97.2289 112.888 96.2591 112.888H94.7988V106.652H96.2591ZM96.2591 112.257C96.7609 112.257 96.9978 111.947 96.9978 111.377V108.169C96.9978 107.605 96.7609 107.284 96.2535 107.284H95.5036V112.257H96.2591Z" fill="#263238"/>
<path d="M99.0043 111.422C99.0043 111.986 99.2242 112.319 99.7316 112.319C100.239 112.319 100.453 111.98 100.453 111.422V106.652H101.107V111.383C101.107 112.33 100.668 112.962 99.7091 112.962C98.7506 112.962 98.3164 112.33 98.3164 111.383V106.652H99.0043V111.422Z" fill="#263238"/>
<path d="M101.773 112.888V106.652H102.473V112.257H104.254V112.888H101.773Z" fill="#263238"/>
<path d="M107.001 109.415V110.041H105.473V112.257H107.345V112.888H104.779V106.652H107.345V107.284H105.473V109.415H107.001Z" fill="#263238"/>
<path d="M124.151 126.871V127.057C124.184 127.306 124.136 127.559 124.014 127.78C123.892 128 123.703 128.175 123.475 128.28C123.706 128.389 123.897 128.57 124.018 128.795C124.14 129.02 124.187 129.278 124.151 129.532V129.972C124.151 130.345 124.003 130.704 123.738 130.968C123.474 131.233 123.116 131.381 122.742 131.381C122.368 131.381 122.009 131.233 121.745 130.968C121.481 130.704 121.332 130.345 121.332 129.972V129.532C121.296 129.277 121.343 129.017 121.467 128.791C121.591 128.565 121.785 128.386 122.02 128.28C121.788 128.179 121.595 128.005 121.47 127.784C121.346 127.563 121.298 127.308 121.332 127.057V126.871C121.332 126.497 121.481 126.138 121.745 125.874C122.009 125.609 122.368 125.461 122.742 125.461C123.116 125.461 123.474 125.609 123.738 125.874C124.003 126.138 124.151 126.497 124.151 126.871ZM122.009 126.871V127.158C122.009 127.722 122.285 127.993 122.753 127.993C123.221 127.993 123.497 127.733 123.497 127.158V126.871C123.497 126.262 123.221 125.985 122.753 125.985C122.285 125.985 122.009 126.278 122.009 126.887V126.871ZM122.009 129.436V129.938C122.009 130.547 122.279 130.834 122.753 130.834C123.227 130.834 123.492 130.547 123.497 129.938V129.436C123.497 128.872 123.244 128.585 122.753 128.585C122.262 128.585 122.009 128.878 122.009 129.453V129.436Z" fill="#263238"/>
<path d="M125.387 127.344V128.167H124.75V127.344H125.387ZM125.387 130.574V131.392H124.75V130.574H125.387Z" fill="#263238"/>
<path d="M126.014 126.9C126.014 125.993 126.465 125.406 127.372 125.406C128.28 125.406 128.731 125.97 128.731 126.9V129.956C128.731 130.864 128.286 131.456 127.372 131.456C126.459 131.456 126.014 130.864 126.014 129.956V126.9ZM126.668 129.996C126.668 130.56 126.893 130.853 127.372 130.853C127.852 130.853 128.072 130.531 128.072 129.996V126.867C128.072 126.303 127.852 126.004 127.372 126.004C126.893 126.004 126.668 126.325 126.668 126.867V129.996Z" fill="#263238"/>
<path d="M129.305 126.9C129.305 125.993 129.756 125.406 130.664 125.406C131.571 125.406 132.022 125.97 132.022 126.9V129.956C132.022 130.864 131.577 131.456 130.664 131.456C129.75 131.456 129.305 130.864 129.305 129.956V126.9ZM129.959 129.996C129.959 130.56 130.184 130.853 130.664 130.853C131.143 130.853 131.363 130.531 131.363 129.996V126.867C131.363 126.303 131.143 126.004 130.664 126.004C130.184 126.004 129.959 126.325 129.959 126.867V129.996Z" fill="#263238"/>
<path d="M138.931 126.545C138.681 126.696 138.399 126.783 138.107 126.798V126.235C138.342 126.241 138.571 126.165 138.756 126.021C138.941 125.877 139.07 125.674 139.122 125.445H139.602V131.371H138.948L138.931 126.545Z" fill="#263238"/>
<path d="M140.531 126.9C140.531 125.993 140.977 125.406 141.884 125.406C142.792 125.406 143.249 125.97 143.249 126.9V129.956C143.249 130.864 142.798 131.456 141.884 131.456C140.971 131.456 140.531 130.864 140.531 129.956V126.9ZM141.18 129.996C141.18 130.56 141.411 130.853 141.884 130.853C142.358 130.853 142.589 130.531 142.589 129.996V126.867C142.589 126.303 142.369 126.004 141.884 126.004C141.4 126.004 141.18 126.325 141.18 126.867V129.996Z" fill="#263238"/>
<path d="M144.506 127.344V128.167H143.875V127.344H144.506ZM144.506 130.574V131.392H143.875V130.574H144.506Z" fill="#263238"/>
<path d="M145.139 126.9C145.139 125.993 145.584 125.406 146.492 125.406C147.4 125.406 147.856 125.97 147.856 126.9V129.956C147.856 130.864 147.405 131.456 146.492 131.456C145.578 131.456 145.139 130.864 145.139 129.956V126.9ZM145.787 129.996C145.787 130.56 146.018 130.853 146.492 130.853C146.965 130.853 147.197 130.531 147.197 129.996V126.867C147.197 126.303 146.971 126.004 146.492 126.004C146.013 126.004 145.787 126.325 145.787 126.867V129.996Z" fill="#263238"/>
<path d="M148.43 126.9C148.43 125.993 148.875 125.406 149.783 125.406C150.691 125.406 151.147 125.97 151.147 126.9V129.956C151.147 130.864 150.696 131.456 149.783 131.456C148.869 131.456 148.43 130.864 148.43 129.956V126.9ZM149.078 129.996C149.078 130.56 149.309 130.853 149.783 130.853C150.256 130.853 150.488 130.531 150.488 129.996V126.867C150.488 126.303 150.268 126.004 149.783 126.004C149.298 126.004 149.078 126.325 149.078 126.867V129.996Z" fill="#263238"/>
<path d="M158.472 126.545C158.222 126.696 157.94 126.783 157.648 126.798V126.235C157.883 126.241 158.112 126.165 158.297 126.021C158.482 125.877 158.611 125.674 158.663 125.445H159.126V131.371H158.472V126.545Z" fill="#263238"/>
<path d="M162.792 126.904C162.792 128.692 160.785 129.334 160.773 130.699V130.795H162.719V131.392H160.125V130.885C160.125 128.974 162.132 128.601 162.132 126.938C162.132 126.329 161.929 126.008 161.433 126.008C160.937 126.008 160.74 126.352 160.74 126.876V127.4H160.125V126.921C160.125 126.013 160.537 125.41 161.456 125.41C162.375 125.41 162.792 126.002 162.792 126.904Z" fill="#263238"/>
<path d="M164.038 127.344V128.167H163.4V127.344H164.038ZM164.038 130.574V131.392H163.4V130.574H164.038Z" fill="#263238"/>
<path d="M164.662 126.9C164.662 125.993 165.108 125.406 166.015 125.406C166.923 125.406 167.38 125.97 167.38 126.9V129.956C167.38 130.864 166.929 131.456 166.015 131.456C165.102 131.456 164.662 130.864 164.662 129.956V126.9ZM165.311 129.996C165.311 130.56 165.542 130.853 166.015 130.853C166.489 130.853 166.72 130.531 166.72 129.996V126.867C166.72 126.303 166.495 126.004 166.015 126.004C165.536 126.004 165.311 126.325 165.311 126.867V129.996Z" fill="#263238"/>
<path d="M167.955 126.9C167.955 125.993 168.4 125.406 169.308 125.406C170.216 125.406 170.673 125.97 170.673 126.9V129.956C170.673 130.864 170.222 131.456 169.308 131.456C168.395 131.456 167.955 130.864 167.955 129.956V126.9ZM168.603 129.996C168.603 130.56 168.835 130.853 169.308 130.853C169.782 130.853 170.013 130.531 170.013 129.996V126.867C170.013 126.303 169.793 126.004 169.308 126.004C168.823 126.004 168.603 126.325 168.603 126.867V129.996Z" fill="#263238"/>
<path d="M180.196 126.904C180.196 128.692 178.189 129.334 178.178 130.699V130.795H180.129V131.392H177.529V130.885C177.529 128.974 179.531 128.601 179.531 126.938C179.531 126.329 179.328 126.008 178.837 126.008C178.347 126.008 178.144 126.352 178.144 126.876V127.4H177.529V126.921C177.529 126.013 177.941 125.41 178.854 125.41C179.768 125.41 180.196 126.002 180.196 126.904Z" fill="#263238"/>
<path d="M181.436 127.344V128.167H180.805V127.344H181.436ZM181.436 130.574V131.392H180.805V130.574H181.436Z" fill="#263238"/>
<path d="M182.062 126.9C182.062 125.993 182.514 125.406 183.421 125.406C184.329 125.406 184.78 125.97 184.78 126.9V129.956C184.78 130.864 184.335 131.456 183.421 131.456C182.508 131.456 182.062 130.864 182.062 129.956V126.9ZM182.717 129.996C182.717 130.56 182.948 130.853 183.421 130.853C183.895 130.853 184.12 130.531 184.12 129.996V126.867C184.12 126.303 183.901 126.004 183.421 126.004C182.942 126.004 182.717 126.325 182.717 126.867V129.996Z" fill="#263238"/>
<path d="M185.355 126.9C185.355 125.993 185.807 125.406 186.714 125.406C187.622 125.406 188.079 125.97 188.079 126.9V129.956C188.079 130.864 187.628 131.456 186.714 131.456C185.801 131.456 185.355 130.864 185.355 129.956V126.9ZM186.01 129.996C186.01 130.56 186.241 130.853 186.714 130.853C187.188 130.853 187.413 130.531 187.413 129.996V126.867C187.413 126.303 187.194 126.004 186.714 126.004C186.235 126.004 186.01 126.325 186.01 126.867V129.996Z" fill="#263238"/>
<path d="M198.751 130.195V131.391H198.103V130.195H196.191V129.598L198.029 125.465H198.751V129.598H199.225V130.195H198.751ZM196.8 129.598H198.103V126.677L196.8 129.598Z" fill="#263238"/>
<path d="M200.364 127.344V128.167H199.732V127.344H200.364ZM200.364 130.574V131.392H199.732V130.574H200.364Z" fill="#263238"/>
<path d="M200.99 126.9C200.99 125.993 201.441 125.406 202.349 125.406C203.257 125.406 203.708 125.97 203.708 126.9V129.956C203.708 130.864 203.262 131.456 202.349 131.456C201.436 131.456 200.99 130.864 200.99 129.956V126.9ZM201.644 129.996C201.644 130.56 201.875 130.853 202.349 130.853C202.823 130.853 203.048 130.531 203.048 129.996V126.867C203.048 126.303 202.828 126.004 202.349 126.004C201.87 126.004 201.644 126.325 201.644 126.867V129.996Z" fill="#263238"/>
<path d="M204.289 126.9C204.289 125.993 204.734 125.406 205.642 125.406C206.55 125.406 207.007 125.97 207.007 126.9V129.956C207.007 130.864 206.556 131.456 205.642 131.456C204.729 131.456 204.289 130.864 204.289 129.956V126.9ZM204.937 129.996C204.937 130.56 205.169 130.853 205.642 130.853C206.116 130.853 206.347 130.531 206.347 129.996V126.867C206.347 126.303 206.121 126.004 205.642 126.004C205.163 126.004 204.937 126.325 204.937 126.867V129.996Z" fill="#263238"/>
<path d="M218.908 126.889V127.002H218.288V126.85C218.288 126.286 218.068 126.004 217.588 126.004C217.109 126.004 216.867 126.325 216.867 126.957V128.287C216.935 128.091 217.066 127.923 217.239 127.808C217.412 127.693 217.618 127.637 217.825 127.65C218.586 127.65 218.925 128.214 218.925 129.06V129.956C218.925 130.864 218.474 131.456 217.566 131.456C216.658 131.456 216.207 130.864 216.207 129.956V126.934C216.207 125.993 216.63 125.406 217.566 125.406C218.502 125.406 218.908 125.987 218.908 126.889ZM216.844 129.111V129.996C216.844 130.56 217.064 130.853 217.543 130.853C218.023 130.853 218.248 130.531 218.248 129.996V129.111C218.248 128.575 218.023 128.254 217.543 128.254C217.064 128.254 216.844 128.575 216.844 129.111Z" fill="#263238"/>
<path d="M220.176 127.344V128.167H219.539V127.344H220.176ZM220.176 130.574V131.392H219.539V130.574H220.176Z" fill="#263238"/>
<path d="M220.791 126.9C220.791 125.993 221.242 125.406 222.144 125.406C223.046 125.406 223.509 125.97 223.509 126.9V129.956C223.509 130.864 223.063 131.456 222.144 131.456C221.225 131.456 220.791 130.864 220.791 129.956V126.9ZM221.445 129.996C221.445 130.56 221.671 130.853 222.144 130.853C222.618 130.853 222.849 130.531 222.849 129.996V126.867C222.849 126.303 222.629 126.004 222.144 126.004C221.659 126.004 221.445 126.325 221.445 126.867V129.996Z" fill="#263238"/>
<path d="M224.096 126.9C224.096 125.993 224.547 125.406 225.455 125.406C226.362 125.406 226.813 125.97 226.813 126.9V129.956C226.813 130.864 226.368 131.456 225.455 131.456C224.541 131.456 224.096 130.864 224.096 129.956V126.9ZM224.75 129.996C224.75 130.56 224.975 130.853 225.455 130.853C225.934 130.853 226.154 130.531 226.154 129.996V126.867C226.154 126.303 225.934 126.004 225.455 126.004C224.975 126.004 224.75 126.325 224.75 126.867V129.996Z" fill="#263238"/>
<path d="M136.505 197.469H118.451V214.479H136.505V197.469Z" stroke="#ADADAD" stroke-miterlimit="10"/>
<path d="M155.083 197.469H137.029V214.479H155.083V197.469Z" stroke="#ADADAD" stroke-miterlimit="10"/>
<path d="M173.661 197.469H155.607V214.479H173.661V197.469Z" stroke="#ADADAD" stroke-miterlimit="10"/>
<path d="M192.245 197.469H174.191V214.479H192.245V197.469Z" stroke="#ADADAD" stroke-miterlimit="10"/>
<path d="M210.823 197.469H192.77V214.479H210.823V197.469Z" stroke="#ADADAD" stroke-miterlimit="10"/>
<path d="M229.479 197.469H211.426V214.479H229.479V197.469Z" stroke="#ADADAD" stroke-miterlimit="10"/>
<path d="M81.3301 134.969H110.564" stroke="#ADADAD" stroke-miterlimit="10"/>
<path d="M81.3301 138.176H110.564" stroke="#ADADAD" stroke-miterlimit="10"/>
<path d="M81.3301 141.379H110.564" stroke="#ADADAD" stroke-miterlimit="10"/>
<path d="M81.3301 144.582H110.564" stroke="#ADADAD" stroke-miterlimit="10"/>
<path d="M81.3301 147.781H110.564" stroke="#ADADAD" stroke-miterlimit="10"/>
<path d="M81.3301 150.992H110.564" stroke="#ADADAD" stroke-miterlimit="10"/>
<path d="M81.3301 154.195H110.564" stroke="#ADADAD" stroke-miterlimit="10"/>
<path d="M81.3301 157.395H110.564" stroke="#ADADAD" stroke-miterlimit="10"/>
<path d="M81.3301 206.324H110.564" stroke="#ADADAD" stroke-miterlimit="10"/>
<path d="M81.3301 209.527H110.564" stroke="#ADADAD" stroke-miterlimit="10"/>
<path d="M81.3301 212.73H110.564" stroke="#ADADAD" stroke-miterlimit="10"/>
<path d="M81.3301 215.934H110.564" stroke="#ADADAD" stroke-miterlimit="10"/>
<path d="M81.3301 219.141H110.564" stroke="#ADADAD" stroke-miterlimit="10"/>
<path d="M81.3301 222.344H110.564" stroke="#ADADAD" stroke-miterlimit="10"/>
<path d="M81.3301 225.547H110.564" stroke="#ADADAD" stroke-miterlimit="10"/>
<path d="M81.3301 228.75H110.564" stroke="#ADADAD" stroke-miterlimit="10"/>
<path d="M136.505 134.984H118.451V151.995H136.505V134.984Z" stroke="#ADADAD" stroke-miterlimit="10"/>
<path d="M155.083 134.984H137.029V151.995H155.083V134.984Z" fill="#9760E0" stroke="#ADADAD" stroke-miterlimit="10"/>
<path d="M173.661 134.984H155.607V151.995H173.661V134.984Z" fill="#9760E0" stroke="#ADADAD" stroke-miterlimit="10"/>
<path d="M192.245 134.984H174.191V151.995H192.245V134.984Z" stroke="#ADADAD" stroke-miterlimit="10"/>
<path d="M210.823 134.984H192.77V151.995H210.823V134.984Z" stroke="#ADADAD" stroke-miterlimit="10"/>
<path d="M229.479 134.984H211.426V151.995H229.479V134.984Z" stroke="#ADADAD" stroke-miterlimit="10"/>
<path d="M140.199 139.832H152.823" stroke="#ADADAD" stroke-miterlimit="10"/>
<path d="M140.199 141.754H152.823" stroke="#ADADAD" stroke-miterlimit="10"/>
<path d="M140.199 143.68H152.823" stroke="#ADADAD" stroke-miterlimit="10"/>
<path d="M140.199 145.594H152.823" stroke="#ADADAD" stroke-miterlimit="10"/>
<path d="M140.199 147.52H152.823" stroke="#ADADAD" stroke-miterlimit="10"/>
<path d="M136.505 155.793H118.451V172.804H136.505V155.793Z" stroke="#ADADAD" stroke-miterlimit="10"/>
<path d="M155.083 155.793H137.029V172.804H155.083V155.793Z" fill="#9760E0" stroke="#ADADAD" stroke-miterlimit="10"/>
<path d="M173.661 155.793H155.607V172.804H173.661V155.793Z" stroke="#ADADAD" stroke-miterlimit="10"/>
<path d="M192.245 155.793H174.191V172.804H192.245V155.793Z" stroke="#ADADAD" stroke-miterlimit="10"/>
<path d="M210.823 155.793H192.77V172.804H210.823V155.793Z" stroke="#ADADAD" stroke-miterlimit="10"/>
<path d="M229.479 155.793H211.426V172.804H229.479V155.793Z" stroke="#ADADAD" stroke-miterlimit="10"/>
<path d="M140.199 160.418H152.823" stroke="#ADADAD" stroke-miterlimit="10"/>
<path d="M140.199 162.336H152.823" stroke="#ADADAD" stroke-miterlimit="10"/>
<path d="M140.199 164.258H152.823" stroke="#ADADAD" stroke-miterlimit="10"/>
<path d="M140.199 166.18H152.823" stroke="#ADADAD" stroke-miterlimit="10"/>
<path d="M140.199 168.105H152.823" stroke="#ADADAD" stroke-miterlimit="10"/>
<path d="M136.505 176.602H118.451V193.612H136.505V176.602Z" stroke="#ADADAD" stroke-miterlimit="10"/>
<path d="M155.083 176.602H137.029V193.612H155.083V176.602Z" stroke="#ADADAD" stroke-miterlimit="10"/>
<path d="M173.661 176.602H155.607V193.612H173.661V176.602Z" stroke="#ADADAD" stroke-miterlimit="10"/>
<path d="M192.245 176.602H174.191V193.612H192.245V176.602Z" stroke="#ADADAD" stroke-miterlimit="10"/>
<path d="M210.823 176.602H192.77V193.612H210.823V176.602Z" fill="#9760E0" stroke="#ADADAD" stroke-miterlimit="10"/>
<path d="M229.479 176.602H211.426V193.612H229.479V176.602Z" stroke="#ADADAD" stroke-miterlimit="10"/>
<path d="M196.182 181.273H208.806" stroke="#ADADAD" stroke-miterlimit="10"/>
<path d="M196.182 183.199H208.806" stroke="#ADADAD" stroke-miterlimit="10"/>
<path d="M196.182 185.113H208.806" stroke="#ADADAD" stroke-miterlimit="10"/>
<path d="M196.182 187.035H208.806" stroke="#ADADAD" stroke-miterlimit="10"/>
<path d="M196.182 188.961H208.806" stroke="#ADADAD" stroke-miterlimit="10"/>
<path d="M136.505 218.328H118.451V235.339H136.505V218.328Z" stroke="#ADADAD" stroke-miterlimit="10"/>
<path d="M155.083 218.328H137.029V235.339H155.083V218.328Z" stroke="#ADADAD" stroke-miterlimit="10"/>
<path d="M173.661 218.328H155.607V235.339H173.661V218.328Z" fill="#9760E0" stroke="#ADADAD" stroke-miterlimit="10"/>
<path d="M192.245 218.328H174.191V235.339H192.245V218.328Z" fill="#9760E0" stroke="#ADADAD" stroke-miterlimit="10"/>
<path d="M210.823 218.328H192.77V235.339H210.823V218.328Z" fill="#9760E0" stroke="#ADADAD" stroke-miterlimit="10"/>
<path d="M229.479 218.328H211.426V235.339H229.479V218.328Z" stroke="#ADADAD" stroke-miterlimit="10"/>
<path d="M158.584 222.984H171.208" stroke="#ADADAD" stroke-miterlimit="10"/>
<path d="M158.584 224.91H171.208" stroke="#ADADAD" stroke-miterlimit="10"/>
<path d="M158.584 226.832H171.208" stroke="#ADADAD" stroke-miterlimit="10"/>
<path d="M158.584 228.75H171.208" stroke="#ADADAD" stroke-miterlimit="10"/>
<path d="M158.584 230.672H171.208" stroke="#ADADAD" stroke-miterlimit="10"/>
<path d="M176.971 222.984H189.595" stroke="#ADADAD" stroke-miterlimit="10"/>
<path d="M176.971 224.91H189.595" stroke="#ADADAD" stroke-miterlimit="10"/>
<path d="M176.971 226.832H189.595" stroke="#ADADAD" stroke-miterlimit="10"/>
<path d="M176.971 228.75H189.595" stroke="#ADADAD" stroke-miterlimit="10"/>
<path d="M176.971 230.672H189.595" stroke="#ADADAD" stroke-miterlimit="10"/>
<path d="M195.357 222.984H207.981" stroke="#ADADAD" stroke-miterlimit="10"/>
<path d="M195.357 224.91H207.981" stroke="#ADADAD" stroke-miterlimit="10"/>
<path d="M195.357 226.832H207.981" stroke="#ADADAD" stroke-miterlimit="10"/>
<path d="M195.357 228.75H207.981" stroke="#ADADAD" stroke-miterlimit="10"/>
<path d="M195.357 230.672H207.981" stroke="#ADADAD" stroke-miterlimit="10"/>
<path d="M70.6932 4.67597C63.1087 -0.941239 53.1133 -0.346872 47.111 3.41188C41.1087 7.17064 39.2502 13.9347 37.5676 18.5641C34.219 27.7726 27.028 33.2475 19.2426 38.5634C11.7083 43.7285 1.92217 51.2963 7.08732 61.6182C9.42294 66.2978 12.3446 69.5124 7.92446 77.1137C3.50437 84.7149 -1.14176 88.2309 2.06449 95.5307C5.27073 102.831 9.37271 114.249 26.6262 110.156C43.8796 106.062 49.1452 86.4645 50.9032 79.1814C52.6612 71.8983 61.1079 68.9097 67.2777 63.6776C73.4474 58.4454 72.8363 50.2247 71.0783 44.9675C69.7388 40.9325 68.232 35.1897 72.8446 30.6189L73.4474 30.8031C73.4474 30.8031 82.7145 26.6174 84.2548 24.0641C85.7952 21.5108 78.2693 10.2848 70.6932 4.67597Z" fill="#263238" stroke="#263238" stroke-linecap="round" stroke-linejoin="round"/>
<path d="M84.1874 54.0312C84.1874 54.0312 102.236 67.9696 106.941 70.908C111.646 73.8463 123.039 79.3464 125.584 81.3136C128.129 83.2809 124.211 91.7109 118.719 94.8502C113.228 97.9895 108.121 94.4567 105.183 92.8829C102.244 91.3091 82.5801 78.5594 82.5801 78.5594L84.1874 54.0312Z" fill="#919191" stroke="#263238" stroke-linecap="round" stroke-linejoin="round"/>
<path d="M88.2124 62.332L85.1484 79.9036L92.1218 65.9568" stroke="#263238" stroke-linecap="round" stroke-linejoin="round"/>
<path d="M90.25 145.695C90.25 145.695 85.5453 145.887 80.2044 140.982C74.8634 136.076 73.5073 133.916 73.5073 133.916C73.5073 133.916 70.7949 106.625 70.7949 104.072C70.7949 101.519 72.9882 88.7693 74.9806 82.4908C76.973 76.2122 80.6732 83.6711 80.6732 83.6711C80.6732 83.6711 85.1854 127.621 85.9723 131.941C86.7592 136.26 90.25 145.695 90.25 145.695Z" fill="#787878" stroke="#263238" stroke-linecap="round" stroke-linejoin="round"/>
<path d="M74.4939 193.855C74.4939 193.855 69.1362 207.183 68.9269 213.62C68.7176 220.058 70.0403 229.769 65.0761 240.66C60.1118 251.551 55.4573 267.515 54.6788 272.396C53.9002 277.276 58.3622 290.637 60.6727 294.999C62.9832 299.36 62.0791 299.034 59.6263 298.95C57.7935 298.954 55.9921 298.474 54.4045 297.558C52.8169 296.642 51.4994 295.323 50.5852 293.735C47.9733 289.348 48.9779 286.619 47.2366 285.028L45.4451 283.429L43.9048 292.897L41.7617 292.521L43.7123 280.307C43.7123 280.307 43.4946 277.536 44.7587 276.347C46.0228 275.158 47.99 271.542 47.99 271.542C47.99 271.542 50.0996 254.423 49.5722 242.736C49.0448 231.05 48.6765 223.674 50.0661 218.811C51.4558 213.947 51.506 212.406 51.6735 207.501C51.8409 202.595 51.7237 196.76 51.7488 195.839C51.7739 194.919 74.4939 193.855 74.4939 193.855Z" fill="white"/>
<path opacity="0.2" d="M51.709 195.852C51.709 196.522 51.709 199.837 51.709 203.487C54.3795 204.04 60.9175 204.776 71.5241 202.131C72.9807 197.627 74.4959 193.852 74.4959 193.852C74.4959 193.852 51.7425 194.931 51.709 195.852Z" fill="black"/>
<path d="M74.4939 193.855C74.4939 193.855 69.1362 207.183 68.9269 213.62C68.7176 220.058 70.0403 229.769 65.0761 240.66C60.1118 251.551 55.4573 267.515 54.6788 272.396C53.9002 277.276 58.3622 290.637 60.6727 294.999C62.9832 299.36 62.0791 299.034 59.6263 298.95C57.7935 298.954 55.9921 298.474 54.4045 297.558C52.8169 296.642 51.4994 295.323 50.5852 293.735C47.9733 289.348 48.9779 286.619 47.2366 285.028L45.4451 283.429L43.9048 292.897L41.7617 292.521L43.7123 280.307C43.7123 280.307 43.4946 277.536 44.7587 276.347C46.0228 275.158 47.99 271.542 47.99 271.542C47.99 271.542 50.0996 254.423 49.5722 242.736C49.0448 231.05 48.6765 223.674 50.0661 218.811C51.4558 213.947 51.506 212.406 51.6735 207.501C51.8409 202.595 51.7237 196.76 51.7488 195.839C51.7739 194.919 74.4939 193.855 74.4939 193.855Z" stroke="#263238" stroke-linecap="round" stroke-linejoin="round"/>
<path d="M60.6735 295.016L60.4308 294.53C55.1735 296.104 52.8965 290.797 50.1758 284.485C48.876 281.453 47.1324 278.632 45.0023 276.113C44.9018 276.214 44.8097 276.314 44.7177 276.398C43.4536 277.587 43.6712 280.358 43.6712 280.358L41.7207 292.571L43.8638 292.948L45.4041 283.48L47.1956 285.079C48.9787 286.67 47.9741 289.399 50.5442 293.785C51.4583 295.374 52.7759 296.693 54.3635 297.609C55.9511 298.524 57.7525 299.005 59.5853 299.001C62.0799 299.051 62.9841 299.386 60.6735 295.016Z" fill="#9760E0" stroke="#263238" stroke-linecap="round" stroke-linejoin="round"/>
<path d="M41.2852 287.301L41.6033 298.376L43.1352 298.426L43.9556 290.147L41.2852 287.301Z" fill="#9760E0" stroke="#263238" stroke-linecap="round" stroke-linejoin="round"/>
<path d="M32.5038 191.836C32.5038 191.836 35.9361 199.312 33.0982 210.889C30.2603 222.467 33.0228 240.666 37.2839 252.169C41.5449 263.671 41.1514 274.093 41.6872 276.563C42.223 279.032 41.1347 283.913 41.3272 287.303C41.5198 290.694 47.1872 296.403 48.3257 298.278C49.4642 300.153 58.0784 300.446 60.2298 300.522C62.3813 300.597 62.7413 298.454 61.2512 297.483C59.761 296.512 56.5548 290.878 56.5548 290.878C56.5548 290.878 51.7078 279.995 51.2139 276.27C50.7199 272.545 48.9954 250.712 49.7656 246.133C50.5358 241.554 53.223 216.163 54.0601 209.441C54.8973 202.719 55.5251 193.217 55.5251 193.217L32.5038 191.836Z" fill="white"/>
<path opacity="0.2" d="M54.7403 202.669C55.1923 197.688 55.4853 193.217 55.4853 193.217L32.5059 191.836C33.531 194.472 34.0973 197.263 34.1801 200.09C37.964 201.438 44.6946 203.037 54.7403 202.669Z" fill="black"/>
<path d="M32.5038 191.836C32.5038 191.836 35.9361 199.312 33.0982 210.889C30.2603 222.467 33.0228 240.666 37.2839 252.169C41.5449 263.671 41.1514 274.093 41.6872 276.563C42.223 279.032 41.1347 283.913 41.3272 287.303C41.5198 290.694 47.1872 296.403 48.3257 298.278C49.4642 300.153 58.0784 300.446 60.2298 300.522C62.3813 300.597 62.7413 298.454 61.2512 297.483C59.761 296.512 56.5548 290.878 56.5548 290.878C56.5548 290.878 51.7078 279.995 51.2139 276.27C50.7199 272.545 48.9954 250.712 49.7656 246.133C50.5358 241.554 53.223 216.163 54.0601 209.441C54.8973 202.719 55.5251 193.217 55.5251 193.217L32.5038 191.836Z" stroke="#263238" stroke-linecap="round" stroke-linejoin="round"/>
<path d="M61.2086 297.483C60.5398 296.935 59.9583 296.288 59.4841 295.566C55.3654 295.365 50.4095 294.896 48.7603 293.381C46.8266 291.614 42.239 283.201 41.5609 281.945C41.3417 283.722 41.2493 285.513 41.2847 287.303C41.4772 290.652 47.1447 296.403 48.2832 298.278C49.4217 300.153 58.0359 300.446 60.1873 300.521C62.3387 300.597 62.7071 298.454 61.2086 297.483Z" fill="#9760E0" stroke="#263238" stroke-linecap="round" stroke-linejoin="round"/>
<path d="M28.6334 107.598C28.6334 107.598 18.0436 139.409 18.8222 153.121C19.6007 166.834 27.4614 193.94 27.4614 193.94C27.4614 193.94 45.1167 198.645 57.6738 198.645C65.6775 198.543 73.6187 197.219 81.2226 194.719C81.2226 194.719 87.5011 150.35 84.7553 134.679C83.0264 125.112 79.2794 116.022 73.7636 108.016L28.6334 107.598Z" fill="#263238" stroke="#263238" stroke-linecap="round" stroke-linejoin="round"/>
<path d="M37.6662 52.8598C37.6662 52.8598 47.8625 48.3477 52.9691 48.3477C58.0756 48.3477 69.2515 56.9786 71.0178 58.5524C72.7842 60.1262 79.0627 77.974 80.0422 82.8797C81.0216 87.7853 73.7636 109.367 73.7636 109.367C73.7636 109.367 60.6205 112.113 50.8093 111.727C40.998 111.342 36.6784 110.154 36.6784 110.154C36.6784 110.154 32.7605 90.5311 30.8184 78.9535C28.8762 67.3758 26.6996 59.6993 28.466 56.786C30.2324 53.8728 37.6662 52.8598 37.6662 52.8598Z" fill="white"/>
<path opacity="0.3" d="M73.7648 109.364C73.7648 109.364 81.0311 87.7829 80.0433 82.8772C79.0555 77.9716 72.7853 60.1154 71.0189 58.55C70.4832 58.0644 69.06 56.9259 67.2016 55.5781L65.9375 57.4115C65.9375 57.4115 72.4672 76.2052 72.6848 83.4967C72.8941 90.3027 66.8249 108.36 65.9877 110.687C70.5083 110.051 73.7648 109.364 73.7648 109.364Z" fill="black"/>
<path d="M37.6662 52.8598C37.6662 52.8598 47.8625 48.3477 52.9691 48.3477C58.0756 48.3477 69.2515 56.9786 71.0178 58.5524C72.7842 60.1262 79.0627 77.974 80.0422 82.8797C81.0216 87.7853 73.7636 109.367 73.7636 109.367C73.7636 109.367 60.6205 112.113 50.8093 111.727C40.998 111.342 36.6784 110.154 36.6784 110.154C36.6784 110.154 32.7605 90.5311 30.8184 78.9535C28.8762 67.3758 26.6996 59.6993 28.466 56.786C30.2324 53.8728 37.6662 52.8598 37.6662 52.8598Z" stroke="#263238" stroke-linecap="round" stroke-linejoin="round"/>
<path d="M62.1875 51.2891C62.1875 51.2891 72.3922 69.5387 75.339 80.9238C78.2857 92.3089 83.183 139.984 85.3428 142.144C86.8057 143.544 88.4568 144.733 90.2484 145.677C90.2484 145.677 84.3884 113.497 84.3884 103.878C84.3884 94.2594 85.9623 56.5882 84.9744 54.4283C83.9866 52.2685 80.6632 53.4489 73.7903 52.662C66.9173 51.8751 62.1875 51.2891 62.1875 51.2891Z" fill="#919191" stroke="#263238" stroke-linecap="round" stroke-linejoin="round"/>
<path d="M45.4203 47.3438L12.7718 59.725C12.7718 59.725 13.9438 97.7898 14.3373 102.695C14.7307 107.601 16.698 110.154 19.4438 112.113C22.1897 114.072 23.1691 111.728 23.1691 111.728C23.1691 111.728 17.6775 132.33 14.3373 139.354C10.9971 146.377 12.7718 146.813 12.7718 146.813C12.7718 146.813 25.5215 152.304 34.7467 149.366C43.972 146.428 46.7178 139.747 46.7178 139.747L41.5862 79.5569C41.5862 79.5569 41.5862 62.2867 42.5656 58.3605C43.5451 54.4343 45.4203 47.3438 45.4203 47.3438Z" fill="#919191" stroke="#263238" stroke-linecap="round" stroke-linejoin="round"/>
<path d="M22.4062 122.009C22.4062 122.009 32.1673 122.285 38.0189 120.059V123.683C33.6768 124.269 29.299 124.549 24.9177 124.521" stroke="#263238" stroke-linecap="round" stroke-linejoin="round"/>
<path d="M19.6211 59.8203C19.6211 59.8203 28.2687 65.6803 31.0564 74.8888" stroke="#263238" stroke-linecap="round" stroke-linejoin="round"/>
<path d="M45.42 47.3435C44.5459 48.0591 43.7466 48.8612 43.0341 49.7377C41.9123 51.1358 38.8484 57.5985 36.9983 59.5574C35.1483 61.5163 36.1612 61.9432 36.8644 61.8093C37.5676 61.6754 44.2982 59.2979 45.5623 58.7203C46.6177 58.2867 47.6965 57.9122 48.7936 57.5985L58.8979 67.5604L61.7107 57.4562C61.7107 57.4562 72.2335 58.2933 73.4976 58.4356C74.7617 58.5779 75.7412 57.8747 74.7617 57.8747C73.7822 57.8747 65.6369 53.8062 64.5151 53.2454C63.3933 52.6845 61.8446 49.3108 58.4793 47.0673C55.114 44.8237 47.8142 44.1205 45.42 47.3435Z" fill="white" stroke="#263238" stroke-linecap="round" stroke-linejoin="round"/>
<path d="M59.5997 50.7193L58.8965 67.5626C58.8965 67.5626 48.6499 54.6455 47.3523 53.1052C46.4607 51.7899 45.8403 50.31 45.5273 48.7521L46.6491 34.1523C46.6491 34.1523 53.2458 44.8259 54.9368 45.9476C56.6278 47.0694 59.4573 49.3129 59.5997 50.7193Z" fill="white" stroke="#263238" stroke-linecap="round" stroke-linejoin="round"/>
<path d="M54.9725 45.9476C53.2982 44.8259 46.6848 34.1523 46.6848 34.1523L45.8477 45.0854C47.1369 47.6889 57.0402 53.5154 58.6894 53.7833C58.9464 53.8309 59.2067 53.8589 59.4679 53.867L59.6019 50.7193C59.4595 49.3129 56.6551 47.0694 54.9725 45.9476Z" fill="#263238" stroke="#263238" stroke-linecap="round" stroke-linejoin="round"/>
<path d="M71.6718 16.4609C71.6718 16.4609 56.6535 25.3095 52.1581 27.4107L49.6466 28.1139C49.6466 28.1139 46.4153 23.4845 44.8666 24.464C43.3179 25.4434 42.4807 27.9716 43.3262 30.2235C44.0765 31.8047 45.2318 33.1593 46.6748 34.1497C46.6748 34.1497 46.8171 40.8887 47.8049 43.4168C48.7928 45.945 59.0728 51.9808 60.7471 52.257C62.4214 52.5333 63.9785 52.257 64.824 50.7167C65.6695 49.1763 70.9937 42.8559 73.3796 34.1497C75.7654 25.4434 74.3423 17.8673 71.6718 16.4609Z" fill="white" stroke="#263238" stroke-linecap="round" stroke-linejoin="round"/>
<path d="M68.3054 30.6406L68.724 38.786L64.2285 37.7982" stroke="#263238" stroke-linecap="round" stroke-linejoin="round"/>
<path d="M58.6211 38.7891C58.6211 38.7891 59.6006 40.0448 63.6439 41.4512" stroke="#263238" stroke-linecap="round" stroke-linejoin="round"/>
<path d="M57.9199 29.668C57.9199 29.668 59.0417 32.0538 63.1102 31.2083" stroke="#263238" stroke-linecap="round" stroke-linejoin="round"/>
<path d="M69.8496 32.8867C70.1489 33.3688 70.607 33.7312 71.145 33.9116C71.683 34.0919 72.267 34.0788 72.7963 33.8745" stroke="#263238" stroke-linecap="round" stroke-linejoin="round"/>
<path d="M59.0742 25.7275C60.1172 25.2835 61.239 25.0547 62.3726 25.0547C63.5061 25.0547 64.6279 25.2835 65.6709 25.7275" stroke="#263238" stroke-linecap="round" stroke-linejoin="round"/>
<path d="M73.9166 28.9651C73.3557 27.4164 70.8359 26.8555 70.8359 26.8555" stroke="#263238" stroke-linecap="round" stroke-linejoin="round"/>
<path d="M99.4485 89.7695L86.8914 92.5907C86.8914 92.5907 71.3123 91.9126 70.1486 92.3647C68.985 92.8167 70.0398 97.4461 70.0398 97.4461C68.3482 97.5689 66.65 97.5689 64.9584 97.4461C63.0413 97.2201 62.1372 97.5633 62.5893 98.8023C63.0413 100.041 64.9584 101.171 66.775 101.171C68.6332 101.043 70.4798 100.78 72.3001 100.384C72.3001 100.384 76.9295 102.059 78.6289 102.059C80.3283 102.059 82.8146 100.594 82.8146 100.594C82.8146 100.594 85.8617 100.703 87.4439 100.82C89.0261 100.937 91.052 98.8944 91.052 98.8944L103.358 98.5595L99.4485 89.7695Z" fill="white" stroke="#263238" stroke-linecap="round" stroke-linejoin="round"/>
<path d="M68.0634 91.582C68.0634 91.582 65.125 91.8081 65.125 92.7122C65.125 93.6163 67.5025 100.389 67.5025 100.389L72.2407 100.841C72.2407 100.841 72.9188 100.615 72.3495 99.7107C71.6922 98.8697 70.9362 98.1108 70.0976 97.4504L70.2064 92.3689L68.0634 91.582Z" fill="white" stroke="#263238" stroke-linecap="round" stroke-linejoin="round"/>
<path d="M72.9037 90.7878C72.9037 90.7878 67.7888 90.3441 67.5963 90.9217C67.4037 91.4994 68.4334 100.13 68.4334 100.13C68.4334 100.13 73.6069 101.244 74.2934 101.193C74.4705 101.172 74.6382 101.102 74.7774 100.991C74.9167 100.879 75.0219 100.731 75.0811 100.563C75.1404 100.395 75.1514 100.213 75.1127 100.039C75.0741 99.8649 74.9875 99.7051 74.8626 99.5777C74.0258 98.9312 73.1153 98.3861 72.1503 97.9537L72.9037 90.7878Z" fill="white" stroke="#263238" stroke-linecap="round" stroke-linejoin="round"/>
<path d="M75.859 90.2266C75.859 90.2266 70.7776 89.3895 70.5516 90.0006C70.3255 90.6117 70.7776 99.2594 70.7776 99.2594C70.7776 99.2594 75.859 100.724 76.5287 100.724C76.7071 100.714 76.8789 100.654 77.025 100.551C77.1712 100.448 77.2858 100.307 77.3562 100.143C77.4266 99.9784 77.4499 99.7979 77.4235 99.6212C77.3971 99.4445 77.3221 99.2786 77.2068 99.1422C76.4153 98.4426 75.5443 97.8385 74.6117 97.3423L75.859 90.2266Z" fill="white" stroke="#263238" stroke-linecap="round" stroke-linejoin="round"/>
<path d="M88.9514 93.606C88.9514 93.606 76.3022 88.8678 75.6325 88.6417C74.9628 88.4157 74.5024 88.7589 74.5024 89.211C74.5024 89.6631 72.4681 97.9758 73.1462 98.5786C73.8243 99.1813 77.8844 100.387 77.8844 100.387C77.8844 100.387 79.0146 99.5915 79.1318 99.2567C79.249 98.9218 77.8844 98.0093 77.8844 98.0093L78.1104 95.4979L81.0488 96.5109" fill="white"/>
<path d="M88.9514 93.606C88.9514 93.606 76.3022 88.8678 75.6325 88.6417C74.9628 88.4157 74.5024 88.7589 74.5024 89.211C74.5024 89.6631 72.4681 97.9758 73.1462 98.5786C73.8243 99.1813 77.8844 100.387 77.8844 100.387C77.8844 100.387 79.0146 99.5915 79.1318 99.2567C79.249 98.9218 77.8844 98.0093 77.8844 98.0093L78.1104 95.4979L81.0488 96.5109" stroke="#263238" stroke-linecap="round" stroke-linejoin="round"/>
<path d="M90.1895 91.6903C90.1895 91.6903 93.019 95.0389 91.6628 98.58H94.5928C94.5928 98.58 95.7229 92.9377 93.1278 91.3555L90.1895 91.6903Z" fill="#263238" stroke="#263238" stroke-linecap="round" stroke-linejoin="round"/>
<path d="M94.5938 89.9992C94.5938 89.9992 96.5945 92.6111 97.1052 101.376C97.2056 103 118.276 100.162 124.145 99.032C130.013 97.9018 132.273 95.6834 132.725 90.7862C133.178 85.8889 127.753 80.9665 123.693 79.2755C119.633 77.5845 94.5938 89.9992 94.5938 89.9992Z" fill="#919191" stroke="#263238" stroke-linecap="round" stroke-linejoin="round"/>
<path d="M41.0157 20.1345L33.635 23.8112C32.828 24.2132 32.4997 25.1932 32.9017 26.0002L42.588 45.445C42.99 46.2519 43.9701 46.5802 44.777 46.1782L52.1578 42.5016C52.9648 42.0996 53.2931 41.1195 52.8911 40.3125L43.2048 20.8678C42.8028 20.0608 41.8227 19.7325 41.0157 20.1345Z" fill="#9760E0" stroke="#263238" stroke-linecap="round" stroke-linejoin="round"/>
<path d="M35.1715 59.5609L37.1388 51.5662L32.9531 38.3645C32.9531 38.3645 36.7454 28.6788 37.4486 27.6993C38.1518 26.7199 39.96 25.732 40.6715 26.025C41.3831 26.318 41.3747 27.2891 40.3953 27.85C39.7038 28.3429 39.1667 29.0223 38.8466 29.8089L36.7454 36.9748L37.6997 38.5403L40.3702 30.3949C40.3702 30.3949 48.0886 29.4155 48.5072 29.4155C48.9257 29.4155 50.6168 29.5578 49.7713 30.6795C49.3018 31.3336 48.6018 31.7853 47.8124 31.9436H51.0353C51.0353 31.9436 52.1571 32.5045 51.4539 33.35C50.7507 34.1955 45.9874 35.4512 45.9874 35.4512L44.1624 41.2108L47.67 37.1339L51.1776 36.573C51.1776 36.573 53.5635 37.1339 53.1449 38.1217C52.7264 39.1095 50.6335 38.5403 50.6335 38.5403L48.5239 39.662L45.3009 45.522V52.8219C45.3009 54.6468 42.0696 61.2519 42.0696 61.2519L35.1715 59.5609Z" fill="white" stroke="#263238" stroke-linecap="round" stroke-linejoin="round"/>
<path d="M47.8135 31.9062L43.0335 33.028L40.5137 41.1734" stroke="#263238" stroke-linecap="round" stroke-linejoin="round"/>
<path d="M33.5398 56.957L46.2978 61.2767C46.2978 61.2767 36.1851 105.913 34.5778 109.998C32.0162 116.595 22.9332 115.23 19.1996 114.058C15.4659 112.886 13.3396 105.62 14.2939 102.673C15.2483 99.7265 33.5398 56.957 33.5398 56.957Z" fill="#919191" stroke="#263238" stroke-linecap="round" stroke-linejoin="round"/>
</svg>
