<svg width="41" height="40" viewBox="0 0 41 40" fill="none" xmlns="http://www.w3.org/2000/svg">
<path d="M31.5 13.92C31.5 20.359 26.5 21.359 26.5 27.36C26.5 30.458 23.377 30.719 21 30.719C18.947 30.719 14.414 29.94 14.414 27.358C14.414 21.36 9.5 20.36 9.5 13.92C9.5 7.889 14.785 3 20.583 3C26.383 3 31.5 7.889 31.5 13.92Z" fill="#FFD983"/>
<path d="M24.667 35.36C24.667 36.188 22.433 37.86 20.5 37.86C18.567 37.86 16.333 36.188 16.333 35.36C16.333 34.532 18.566 34.86 20.5 34.86C22.433 34.86 24.667 34.532 24.667 35.36Z" fill="#CCD6DD"/>
<path d="M25.207 13.153C24.816 12.762 24.184 12.762 23.793 13.153L20.5 16.446L17.207 13.153C16.816 12.762 16.184 12.762 15.793 13.153C15.402 13.544 15.402 14.176 15.793 14.567L19.5 18.274V28.86C19.5 29.413 19.948 29.86 20.5 29.86C21.052 29.86 21.5 29.413 21.5 28.86V18.274L25.207 14.567C25.598 14.176 25.598 13.544 25.207 13.153Z" fill="#FFCC4D"/>
<path d="M26.5 33.86C26.5 34.964 25.604 35.86 24.5 35.86H16.5C15.396 35.86 14.5 34.964 14.5 33.86V27.86H26.5V33.86Z" fill="#99AAB5"/>
<path d="M14.4989 34.86C14.0189 34.86 13.5949 34.513 13.5139 34.024C13.4229 33.48 13.7909 32.964 14.3359 32.874L26.3359 30.874C26.8799 30.776 27.3959 31.151 27.4859 31.696C27.5769 32.24 27.2089 32.756 26.6639 32.846L14.6639 34.846C14.6089 34.856 14.5529 34.86 14.4989 34.86ZM14.4989 30.86C14.0189 30.86 13.5949 30.513 13.5139 30.024C13.4229 29.48 13.7909 28.964 14.3359 28.874L26.3359 26.874C26.8799 26.777 27.3959 27.151 27.4859 27.696C27.5769 28.24 27.2089 28.756 26.6639 28.846L14.6639 30.846C14.6089 30.856 14.5529 30.86 14.4989 30.86Z" fill="#CCD6DD"/>
</svg>
