<svg width="102" height="77" viewBox="0 0 102 77" fill="none" xmlns="http://www.w3.org/2000/svg">
<path d="M28.272 65.52V67.13H27.152V65.604C27.152 65.1467 27.0167 64.8107 26.746 64.596C26.4847 64.3813 26.1347 64.274 25.696 64.274C25.4067 64.274 25.1267 64.3207 24.856 64.414C24.5853 64.5073 24.3567 64.6147 24.17 64.736V67.13H23.05V64.792C23.05 64.6053 23.0873 64.4467 23.162 64.316C23.246 64.1853 23.386 64.0593 23.582 63.938C23.834 63.7793 24.1513 63.644 24.534 63.532C24.926 63.4107 25.318 63.35 25.71 63.35C26.186 63.35 26.606 63.4247 26.97 63.574C27.334 63.714 27.6047 63.91 27.782 64.162C27.838 64.218 27.8847 64.2693 27.922 64.316C27.9593 64.3627 27.9967 64.4233 28.034 64.498C28.0993 64.61 28.1553 64.7547 28.202 64.932C28.2487 65.1093 28.272 65.3053 28.272 65.52ZM32.374 65.548V67.13H31.254V65.604C31.254 65.1467 31.1233 64.8107 30.862 64.596C30.6007 64.3813 30.2507 64.274 29.812 64.274C29.4853 64.274 29.168 64.344 28.86 64.484C28.5613 64.6147 28.2907 64.806 28.048 65.058L27.6 64.246C27.8427 64.0033 28.16 63.7933 28.552 63.616C28.944 63.4387 29.392 63.35 29.896 63.35C30.4 63.35 30.834 63.4293 31.198 63.588C31.5713 63.7467 31.8607 63.9893 32.066 64.316C32.2713 64.6427 32.374 65.0533 32.374 65.548ZM23.05 66.388H24.17V69.972C24.1233 69.9907 24.0533 70.0093 23.96 70.028C23.8667 70.056 23.764 70.07 23.652 70.07C23.456 70.07 23.3067 70.0327 23.204 69.958C23.1013 69.874 23.05 69.7433 23.05 69.566V66.388ZM27.152 66.388H28.272V69.972C28.2253 69.9907 28.1507 70.0093 28.048 70.028C27.9547 70.056 27.8567 70.07 27.754 70.07C27.5487 70.07 27.3947 70.0327 27.292 69.958C27.1987 69.874 27.152 69.7433 27.152 69.566V66.388ZM31.254 66.388H32.374V69.972C32.3273 69.9907 32.2527 70.0093 32.15 70.028C32.0567 70.056 31.9587 70.07 31.856 70.07C31.6507 70.07 31.4967 70.0327 31.394 69.958C31.3007 69.874 31.254 69.7433 31.254 69.566V66.388ZM36.7897 69.272C37.1817 69.272 37.5037 69.2347 37.7557 69.16C38.017 69.076 38.2037 68.9967 38.3157 68.922V66.892L36.5797 67.074C36.0944 67.1113 35.735 67.2187 35.5017 67.396C35.2684 67.5733 35.1517 67.83 35.1517 68.166C35.1517 68.5113 35.287 68.782 35.5577 68.978C35.8377 69.174 36.2484 69.272 36.7897 69.272ZM36.7757 63.35C37.5877 63.35 38.2317 63.532 38.7077 63.896C39.1837 64.26 39.4217 64.834 39.4217 65.618V68.936C39.4217 69.1413 39.3797 69.3 39.2957 69.412C39.221 69.5147 39.1044 69.6127 38.9457 69.706C38.7217 69.8273 38.423 69.9393 38.0497 70.042C37.6764 70.1447 37.2564 70.196 36.7897 70.196C35.9124 70.196 35.231 70.0233 34.7457 69.678C34.2697 69.3327 34.0317 68.8333 34.0317 68.18C34.0317 67.5733 34.2324 67.1113 34.6337 66.794C35.0444 66.4673 35.609 66.2713 36.3277 66.206L38.3157 66.01V65.618C38.3157 65.1513 38.1757 64.8107 37.8957 64.596C37.6157 64.3813 37.2377 64.274 36.7617 64.274C36.379 64.274 36.0104 64.33 35.6557 64.442C35.3104 64.554 35.0024 64.68 34.7317 64.82C34.657 64.7547 34.587 64.68 34.5217 64.596C34.4657 64.5027 34.4377 64.4093 34.4377 64.316C34.4377 64.0733 34.573 63.8867 34.8437 63.756C35.0957 63.6253 35.385 63.5273 35.7117 63.462C36.0477 63.3873 36.4024 63.35 36.7757 63.35ZM47.066 65.73V67.158H45.946V65.786C45.946 65.2633 45.7967 64.8807 45.498 64.638C45.2087 64.3953 44.8167 64.274 44.322 64.274C43.9487 64.274 43.6173 64.3207 43.328 64.414C43.0387 64.5073 42.7913 64.6147 42.586 64.736V67.158H41.466V64.792C41.466 64.596 41.5033 64.4373 41.578 64.316C41.662 64.1853 41.802 64.0593 41.998 63.938C42.2407 63.798 42.5627 63.6673 42.964 63.546C43.3653 63.4153 43.818 63.35 44.322 63.35C45.1713 63.35 45.8387 63.546 46.324 63.938C46.8187 64.3207 47.066 64.918 47.066 65.73ZM41.466 66.388H42.586V69.972C42.5393 69.9907 42.4693 70.0093 42.376 70.028C42.2827 70.056 42.18 70.07 42.068 70.07C41.872 70.07 41.7227 70.0327 41.62 69.958C41.5173 69.874 41.466 69.7433 41.466 69.566V66.388ZM45.946 66.388H47.066V69.972C47.0193 69.9907 46.9447 70.0093 46.842 70.028C46.7487 70.056 46.6507 70.07 46.548 70.07C46.3427 70.07 46.1887 70.0327 46.086 69.958C45.9927 69.874 45.946 69.7433 45.946 69.566V66.388ZM51.4733 69.272C51.8653 69.272 52.1873 69.2347 52.4393 69.16C52.7006 69.076 52.8873 68.9967 52.9993 68.922V66.892L51.2633 67.074C50.7779 67.1113 50.4186 67.2187 50.1853 67.396C49.9519 67.5733 49.8353 67.83 49.8353 68.166C49.8353 68.5113 49.9706 68.782 50.2413 68.978C50.5213 69.174 50.9319 69.272 51.4733 69.272ZM51.4593 63.35C52.2713 63.35 52.9153 63.532 53.3913 63.896C53.8673 64.26 54.1053 64.834 54.1053 65.618V68.936C54.1053 69.1413 54.0633 69.3 53.9793 69.412C53.9046 69.5147 53.7879 69.6127 53.6293 69.706C53.4053 69.8273 53.1066 69.9393 52.7333 70.042C52.3599 70.1447 51.9399 70.196 51.4733 70.196C50.5959 70.196 49.9146 70.0233 49.4293 69.678C48.9533 69.3327 48.7153 68.8333 48.7153 68.18C48.7153 67.5733 48.9159 67.1113 49.3173 66.794C49.7279 66.4673 50.2926 66.2713 51.0113 66.206L52.9993 66.01V65.618C52.9993 65.1513 52.8593 64.8107 52.5793 64.596C52.2993 64.3813 51.9213 64.274 51.4453 64.274C51.0626 64.274 50.6939 64.33 50.3393 64.442C49.9939 64.554 49.6859 64.68 49.4153 64.82C49.3406 64.7547 49.2706 64.68 49.2053 64.596C49.1493 64.5027 49.1213 64.4093 49.1213 64.316C49.1213 64.0733 49.2566 63.8867 49.5273 63.756C49.7793 63.6253 50.0686 63.5273 50.3953 63.462C50.7313 63.3873 51.0859 63.35 51.4593 63.35ZM58.8376 69.804C58.2963 69.804 57.7969 69.7013 57.3396 69.496C56.8823 69.2813 56.5136 68.936 56.2336 68.46C55.9536 67.984 55.8136 67.354 55.8136 66.57C55.8136 65.8607 55.9489 65.268 56.2196 64.792C56.4996 64.316 56.8823 63.9567 57.3676 63.714C57.8529 63.4713 58.4083 63.35 59.0336 63.35C59.4629 63.35 59.8549 63.406 60.2096 63.518C60.5736 63.6207 60.8769 63.7513 61.1196 63.91C61.2596 64.0033 61.3716 64.1107 61.4556 64.232C61.5489 64.344 61.5956 64.484 61.5956 64.652V68.978H60.4756V64.666C60.3169 64.5633 60.1163 64.4747 59.8736 64.4C59.6403 64.316 59.3603 64.274 59.0336 64.274C58.4083 64.274 57.9043 64.4653 57.5216 64.848C57.1389 65.2307 56.9476 65.8 56.9476 66.556C56.9476 67.396 57.1389 67.9933 57.5216 68.348C57.9136 68.7027 58.3943 68.88 58.9636 68.88C59.3743 68.88 59.7056 68.81 59.9576 68.67C60.2096 68.53 60.4103 68.376 60.5596 68.208L60.6156 69.202C60.4756 69.3513 60.2516 69.4913 59.9436 69.622C59.6449 69.7433 59.2763 69.804 58.8376 69.804ZM60.4756 70.21V68.74H61.5956V70.28C61.5956 70.896 61.4603 71.3907 61.1896 71.764C60.9283 72.1373 60.5643 72.408 60.0976 72.576C59.6403 72.744 59.1223 72.828 58.5436 72.828C58.0769 72.828 57.6756 72.7767 57.3396 72.674C57.0036 72.5713 56.7749 72.4873 56.6536 72.422C56.3736 72.2633 56.2336 72.0627 56.2336 71.82C56.2336 71.6893 56.2616 71.5773 56.3176 71.484C56.3829 71.4 56.4623 71.3347 56.5556 71.288C56.7516 71.4373 57.0269 71.5727 57.3816 71.694C57.7456 71.8247 58.1329 71.89 58.5436 71.89C59.1689 71.89 59.6449 71.7547 59.9716 71.484C60.3076 71.2133 60.4756 70.7887 60.4756 70.21ZM64.0751 67.48L64.0191 66.598L68.2471 66.024C68.2098 65.5107 68.0325 65.0907 67.7151 64.764C67.3978 64.428 66.9591 64.26 66.3991 64.26C65.8205 64.26 65.3398 64.47 64.9571 64.89C64.5838 65.3007 64.3971 65.8933 64.3971 66.668V66.976C64.4625 67.7227 64.7051 68.292 65.1251 68.684C65.5545 69.0667 66.1378 69.258 66.8751 69.258C67.2671 69.258 67.6218 69.1927 67.9391 69.062C68.2565 68.9313 68.5085 68.7913 68.6951 68.642C68.7978 68.7073 68.8771 68.7867 68.9331 68.88C68.9985 68.964 69.0311 69.062 69.0311 69.174C69.0311 69.3513 68.9285 69.5193 68.7231 69.678C68.5271 69.8273 68.2611 69.9487 67.9251 70.042C67.5985 70.1353 67.2298 70.182 66.8191 70.182C66.1005 70.182 65.4751 70.0513 64.9431 69.79C64.4205 69.5287 64.0145 69.1413 63.7251 68.628C63.4451 68.1053 63.3051 67.4707 63.3051 66.724C63.3051 66.192 63.3798 65.7207 63.5291 65.31C63.6878 64.89 63.9025 64.5353 64.1731 64.246C64.4531 63.9567 64.7845 63.7373 65.1671 63.588C65.5498 63.4293 65.9651 63.35 66.4131 63.35C66.9825 63.35 67.4818 63.4713 67.9111 63.714C68.3498 63.9567 68.6905 64.2973 68.9331 64.736C69.1851 65.1653 69.3111 65.66 69.3111 66.22C69.3111 66.4253 69.2645 66.5747 69.1711 66.668C69.0778 66.752 68.9471 66.8033 68.7791 66.822L64.0751 67.48ZM76.1509 65.52V67.13H75.0309V65.604C75.0309 65.1467 74.8956 64.8107 74.6249 64.596C74.3636 64.3813 74.0136 64.274 73.5749 64.274C73.2856 64.274 73.0056 64.3207 72.7349 64.414C72.4642 64.5073 72.2356 64.6147 72.0489 64.736V67.13H70.9289V64.792C70.9289 64.6053 70.9662 64.4467 71.0409 64.316C71.1249 64.1853 71.2649 64.0593 71.4609 63.938C71.7129 63.7793 72.0302 63.644 72.4129 63.532C72.8049 63.4107 73.1969 63.35 73.5889 63.35C74.0649 63.35 74.4849 63.4247 74.8489 63.574C75.2129 63.714 75.4836 63.91 75.6609 64.162C75.7169 64.218 75.7636 64.2693 75.8009 64.316C75.8382 64.3627 75.8756 64.4233 75.9129 64.498C75.9782 64.61 76.0342 64.7547 76.0809 64.932C76.1276 65.1093 76.1509 65.3053 76.1509 65.52ZM80.2529 65.548V67.13H79.1329V65.604C79.1329 65.1467 79.0022 64.8107 78.7409 64.596C78.4796 64.3813 78.1296 64.274 77.6909 64.274C77.3642 64.274 77.0469 64.344 76.7389 64.484C76.4402 64.6147 76.1696 64.806 75.9269 65.058L75.4789 64.246C75.7216 64.0033 76.0389 63.7933 76.4309 63.616C76.8229 63.4387 77.2709 63.35 77.7749 63.35C78.2789 63.35 78.7129 63.4293 79.0769 63.588C79.4502 63.7467 79.7396 63.9893 79.9449 64.316C80.1502 64.6427 80.2529 65.0533 80.2529 65.548ZM70.9289 66.388H72.0489V69.972C72.0022 69.9907 71.9322 70.0093 71.8389 70.028C71.7456 70.056 71.6429 70.07 71.5309 70.07C71.3349 70.07 71.1856 70.0327 71.0829 69.958C70.9802 69.874 70.9289 69.7433 70.9289 69.566V66.388ZM75.0309 66.388H76.1509V69.972C76.1042 69.9907 76.0296 70.0093 75.9269 70.028C75.8336 70.056 75.7356 70.07 75.6329 70.07C75.4276 70.07 75.2736 70.0327 75.1709 69.958C75.0776 69.874 75.0309 69.7433 75.0309 69.566V66.388ZM79.1329 66.388H80.2529V69.972C80.2062 69.9907 80.1316 70.0093 80.0289 70.028C79.9356 70.056 79.8376 70.07 79.7349 70.07C79.5296 70.07 79.3756 70.0327 79.2729 69.958C79.1796 69.874 79.1329 69.7433 79.1329 69.566V66.388ZM82.7646 67.48L82.7086 66.598L86.9366 66.024C86.8993 65.5107 86.7219 65.0907 86.4046 64.764C86.0873 64.428 85.6486 64.26 85.0886 64.26C84.5099 64.26 84.0293 64.47 83.6466 64.89C83.2733 65.3007 83.0866 65.8933 83.0866 66.668V66.976C83.1519 67.7227 83.3946 68.292 83.8146 68.684C84.2439 69.0667 84.8273 69.258 85.5646 69.258C85.9566 69.258 86.3113 69.1927 86.6286 69.062C86.9459 68.9313 87.1979 68.7913 87.3846 68.642C87.4873 68.7073 87.5666 68.7867 87.6226 68.88C87.6879 68.964 87.7206 69.062 87.7206 69.174C87.7206 69.3513 87.6179 69.5193 87.4126 69.678C87.2166 69.8273 86.9506 69.9487 86.6146 70.042C86.2879 70.1353 85.9193 70.182 85.5086 70.182C84.7899 70.182 84.1646 70.0513 83.6326 69.79C83.1099 69.5287 82.7039 69.1413 82.4146 68.628C82.1346 68.1053 81.9946 67.4707 81.9946 66.724C81.9946 66.192 82.0693 65.7207 82.2186 65.31C82.3773 64.89 82.5919 64.5353 82.8626 64.246C83.1426 63.9567 83.4739 63.7373 83.8566 63.588C84.2393 63.4293 84.6546 63.35 85.1026 63.35C85.6719 63.35 86.1713 63.4713 86.6006 63.714C87.0393 63.9567 87.3799 64.2973 87.6226 64.736C87.8746 65.1653 88.0006 65.66 88.0006 66.22C88.0006 66.4253 87.9539 66.5747 87.8606 66.668C87.7673 66.752 87.6366 66.8033 87.4686 66.822L82.7646 67.48ZM95.2184 65.73V67.158H94.0984V65.786C94.0984 65.2633 93.949 64.8807 93.6504 64.638C93.361 64.3953 92.969 64.274 92.4744 64.274C92.101 64.274 91.7697 64.3207 91.4804 64.414C91.191 64.5073 90.9437 64.6147 90.7384 64.736V67.158H89.6184V64.792C89.6184 64.596 89.6557 64.4373 89.7304 64.316C89.8144 64.1853 89.9544 64.0593 90.1504 63.938C90.393 63.798 90.715 63.6673 91.1164 63.546C91.5177 63.4153 91.9704 63.35 92.4744 63.35C93.3237 63.35 93.991 63.546 94.4764 63.938C94.971 64.3207 95.2184 64.918 95.2184 65.73ZM89.6184 66.388H90.7384V69.972C90.6917 69.9907 90.6217 70.0093 90.5284 70.028C90.435 70.056 90.3324 70.07 90.2204 70.07C90.0244 70.07 89.875 70.0327 89.7724 69.958C89.6697 69.874 89.6184 69.7433 89.6184 69.566V66.388ZM94.0984 66.388H95.2184V69.972C95.1717 69.9907 95.097 70.0093 94.9944 70.028C94.901 70.056 94.803 70.07 94.7004 70.07C94.495 70.07 94.341 70.0327 94.2384 69.958C94.145 69.874 94.0984 69.7433 94.0984 69.566V66.388ZM97.3296 66.304H98.4496V68.236C98.4496 68.6093 98.557 68.8753 98.7716 69.034C98.9863 69.1833 99.2803 69.258 99.6536 69.258C99.8123 69.258 99.9896 69.23 100.186 69.174C100.382 69.118 100.545 69.0527 100.676 68.978C100.732 69.034 100.783 69.104 100.83 69.188C100.876 69.272 100.9 69.37 100.9 69.482C100.9 69.6873 100.778 69.8553 100.536 69.986C100.293 70.1167 99.957 70.182 99.5276 70.182C98.8743 70.182 98.3423 70.0373 97.9316 69.748C97.5303 69.4587 97.3296 68.978 97.3296 68.306V66.304ZM97.9036 64.596V63.672H100.746C100.774 63.7093 100.802 63.77 100.83 63.854C100.858 63.938 100.872 64.0267 100.872 64.12C100.872 64.2693 100.834 64.386 100.76 64.47C100.685 64.554 100.582 64.596 100.452 64.596H97.9036ZM98.4496 66.724H97.3296V61.656C97.3763 61.6373 97.4463 61.6187 97.5396 61.6C97.6423 61.572 97.7496 61.558 97.8616 61.558C98.0576 61.558 98.2023 61.6 98.2956 61.684C98.3983 61.7587 98.4496 61.8847 98.4496 62.062V66.724Z" fill="black"/>
<circle cx="25" cy="25" r="25" fill="url(#paint0_linear_735_296)"/>
<path d="M22.957 35.3906C22.957 34.2318 23.1784 33.1445 23.6211 32.1289C24.0638 31.1133 24.6628 30.2279 25.418 29.4727C26.1862 28.7044 27.0781 28.099 28.0938 27.6562C29.1094 27.2135 30.1966 26.9922 31.3555 26.9922H44.207V32.5977H31.3555C30.9648 32.5977 30.6003 32.6693 30.2617 32.8125C29.9232 32.9557 29.6237 33.1576 29.3633 33.418C29.1159 33.6654 28.9206 33.9583 28.7773 34.2969C28.6341 34.6354 28.5625 35 28.5625 35.3906C28.5625 35.7812 28.6341 36.1523 28.7773 36.5039C28.9206 36.8424 29.1159 37.1419 29.3633 37.4023C29.6237 37.6497 29.9232 37.8451 30.2617 37.9883C30.6003 38.1315 30.9648 38.2031 31.3555 38.2031H36.9609C38.1198 38.2031 39.207 38.4245 40.2227 38.8672C41.2513 39.2969 42.1432 39.8958 42.8984 40.6641C43.6667 41.4193 44.2656 42.3112 44.6953 43.3398C45.138 44.3555 45.3594 45.4427 45.3594 46.6016C45.3594 47.7604 45.138 48.8477 44.6953 49.8633C44.2656 50.8789 43.6667 51.7708 42.8984 52.5391C42.1432 53.2943 41.2513 53.8932 40.2227 54.3359C39.207 54.7786 38.1198 55 36.9609 55H24.5195V49.3945H36.9609C37.3516 49.3945 37.7161 49.3229 38.0547 49.1797C38.3932 49.0365 38.6862 48.8411 38.9336 48.5938C39.194 48.3333 39.3958 48.0339 39.5391 47.6953C39.6823 47.3568 39.7539 46.9922 39.7539 46.6016C39.7539 46.2109 39.6823 45.8464 39.5391 45.5078C39.3958 45.1693 39.194 44.8763 38.9336 44.6289C38.6862 44.3685 38.3932 44.1667 38.0547 44.0234C37.7161 43.8802 37.3516 43.8086 36.9609 43.8086H31.3555C30.1966 43.8086 29.1094 43.5872 28.0938 43.1445C27.0781 42.7018 26.1862 42.1029 25.418 41.3477C24.6628 40.5794 24.0638 39.6875 23.6211 38.6719C23.1784 37.6432 22.957 36.5495 22.957 35.3906ZM71.3359 52.168C70.0339 53.2747 68.582 54.1276 66.9805 54.7266C65.3789 55.3125 63.7122 55.6055 61.9805 55.6055C60.6523 55.6055 59.3698 55.4297 58.1328 55.0781C56.9089 54.7396 55.763 54.2578 54.6953 53.6328C53.6276 52.9948 52.651 52.2396 51.7656 51.3672C50.8802 50.4818 50.125 49.5052 49.5 48.4375C48.875 47.3568 48.3867 46.1979 48.0352 44.9609C47.6966 43.724 47.5273 42.4414 47.5273 41.1133C47.5273 39.7852 47.6966 38.5091 48.0352 37.2852C48.3867 36.0612 48.875 34.9154 49.5 33.8477C50.125 32.7669 50.8802 31.7904 51.7656 30.918C52.651 30.0326 53.6276 29.2773 54.6953 28.6523C55.763 28.0273 56.9089 27.5456 58.1328 27.207C59.3698 26.8555 60.6523 26.6797 61.9805 26.6797C63.7122 26.6797 65.3789 26.9792 66.9805 27.5781C68.582 28.1641 70.0339 29.0104 71.3359 30.1172L68.4062 35C67.5599 34.1406 66.5833 33.4701 65.4766 32.9883C64.3698 32.4935 63.2044 32.2461 61.9805 32.2461C60.7565 32.2461 59.6042 32.4805 58.5234 32.9492C57.4557 33.418 56.5182 34.056 55.7109 34.8633C54.9036 35.6576 54.2656 36.5951 53.7969 37.6758C53.3281 38.7435 53.0938 39.8893 53.0938 41.1133C53.0938 42.3503 53.3281 43.5091 53.7969 44.5898C54.2656 45.6706 54.9036 46.6146 55.7109 47.4219C56.5182 48.2292 57.4557 48.8672 58.5234 49.3359C59.6042 49.8047 60.7565 50.0391 61.9805 50.0391C62.6836 50.0391 63.3672 49.9544 64.0312 49.7852C64.6953 49.6159 65.3268 49.3815 65.9258 49.082V41.1133H71.3359V52.168ZM92.1367 43.8086V38.2031C92.1367 37.4349 91.987 36.7122 91.6875 36.0352C91.401 35.3451 91.0039 34.7461 90.4961 34.2383C89.9883 33.7305 89.3893 33.3333 88.6992 33.0469C88.0221 32.7474 87.2995 32.5977 86.5312 32.5977C85.763 32.5977 85.0339 32.7474 84.3438 33.0469C83.6667 33.3333 83.0742 33.7305 82.5664 34.2383C82.0586 34.7461 81.6549 35.3451 81.3555 36.0352C81.069 36.7122 80.9258 37.4349 80.9258 38.2031V43.8086H92.1367ZM97.7422 55H92.1367V49.3945H80.9258V55H75.3398V38.2031C75.3398 36.6536 75.6328 35.2018 76.2188 33.8477C76.8047 32.4805 77.599 31.2891 78.6016 30.2734C79.6172 29.2578 80.8021 28.457 82.1562 27.8711C83.5234 27.2852 84.9818 26.9922 86.5312 26.9922C88.0807 26.9922 89.5326 27.2852 90.8867 27.8711C92.2539 28.457 93.4453 29.2578 94.4609 30.2734C95.4766 31.2891 96.2773 32.4805 96.8633 33.8477C97.4492 35.2018 97.7422 36.6536 97.7422 38.2031V55Z" fill="black"/>
<defs>
<linearGradient id="paint0_linear_735_296" x1="25" y1="0" x2="25" y2="50" gradientUnits="userSpaceOnUse">
<stop stop-color="#367FBF"/>
<stop offset="1" stop-color="#ACD8F1"/>
</linearGradient>
</defs>
</svg>
