<svg width="40" height="40" viewBox="0 0 40 40" fill="none" xmlns="http://www.w3.org/2000/svg">
<path d="M9.91669 6C10.9167 5 10.1667 2 8.47869 2C6.79069 2 6.91669 4 7.91669 4C8.91669 4 8.91669 6 8.91669 7C8.91669 8 9.91669 6 9.91669 6ZM5.73369 7.72C6.73369 6.72 5.98369 3.72 4.29569 3.72C2.60769 3.72 2.73369 5.72 3.73369 5.72C4.73369 5.72 4.73369 7.72 4.73369 8.72C4.73369 9.72 5.73369 7.72 5.73369 7.72Z" fill="#AA8DD8"/>
<path d="M32.1088 34.8578C32.2978 35.6658 33.3358 37.1378 34.1408 36.9488C34.9468 36.7588 35.2178 34.9778 35.0288 34.1718C34.8398 33.3638 34.0308 32.8648 33.2248 33.0548C32.4198 33.2448 31.9188 34.0518 32.1088 34.8578ZM26.6748 35.5068C26.6778 36.3368 27.3558 38.0048 28.1838 38.0018C29.0118 37.9978 29.6778 36.3248 29.6748 35.4958C29.6718 34.6668 28.9978 33.9988 28.1698 34.0008C27.3418 34.0048 26.6718 34.6778 26.6748 35.5068ZM21.4038 33.0608C21.0778 33.8248 21.0388 35.6238 21.7998 35.9508C22.5628 36.2748 23.8368 35.0038 24.1628 34.2408C24.4878 33.4788 24.1348 32.5978 23.3738 32.2708C22.6118 31.9458 21.7308 32.2978 21.4038 33.0608ZM16.3728 22.0208C15.5608 22.1928 14.0648 23.1938 14.2338 24.0038C14.4068 24.8138 16.1788 25.1278 16.9908 24.9568C17.8018 24.7858 18.3198 23.9898 18.1508 23.1798C17.9788 22.3698 17.1858 21.8498 16.3728 22.0208ZM14.3358 17.0208C13.5238 17.1928 12.0278 18.1938 12.1968 19.0038C12.3698 19.8138 14.1418 20.1278 14.9538 19.9568C15.7648 19.7858 16.2828 18.9898 16.1138 18.1798C15.9418 17.3698 15.1478 16.8498 14.3358 17.0208Z" fill="#744EAA"/>
<path d="M29.7458 36.0012C32.5768 36.0012 34.6718 35.1242 35.0118 34.9742C37.2828 33.9642 38.3048 31.3052 37.2958 29.0352C36.2968 26.7852 33.6798 25.7602 31.4238 26.7212C31.2908 26.7712 29.6308 27.3702 28.0808 26.6492C26.2298 25.7882 25.0858 23.3402 24.4528 21.4402C24.3088 21.0102 24.0678 20.1662 23.7668 19.1242C21.9008 12.6532 20.9348 10.8392 19.7838 9.30421C16.0728 4.35321 10.1918 4.00821 7.3008 4.58821C4.8638 5.07521 3.2828 7.44621 3.7708 9.88321C4.2588 12.3212 6.6308 13.9032 9.0668 13.4132C9.2288 13.3872 11.2708 13.1072 12.4908 14.5822C13.1338 15.8692 14.5708 19.7102 15.1208 21.6162C15.4668 22.8152 15.7498 23.7872 15.9148 24.2832C17.6878 29.6002 20.5808 33.1762 24.5178 34.9122C26.3698 35.7302 28.1718 36.0012 29.7458 36.0012Z" fill="#9266CC"/>
<path d="M9.18359 8C9.73588 8 10.1836 7.55228 10.1836 7C10.1836 6.44772 9.73588 6 9.18359 6C8.63131 6 8.18359 6.44772 8.18359 7C8.18359 7.55228 8.63131 8 9.18359 8Z" fill="#202024"/>
<path d="M33.4246 34.9639C33.3356 34.9639 33.2446 34.9519 33.1556 34.9279C32.6236 34.7799 32.3116 34.2289 32.4596 33.6969C33.2166 30.9749 31.6896 29.1549 31.6746 29.1369C31.3156 28.7178 31.3626 28.0858 31.7816 27.7269C32.1996 27.3679 32.8326 27.4149 33.1916 27.8339C33.2836 27.9409 35.4256 30.4939 34.3866 34.2309C34.2646 34.6739 33.8616 34.9639 33.4246 34.9639ZM26.2256 34.4009C25.9806 34.4009 25.7356 34.3119 25.5416 34.1309C25.1386 33.7529 25.1176 33.1199 25.4946 32.7169C26.9796 31.1299 26.9476 28.5239 26.9466 28.4969C26.9306 27.9449 27.3656 27.4849 27.9186 27.4689C28.4606 27.4639 28.9316 27.8879 28.9466 28.4409C28.9506 28.5799 29.0196 31.8778 26.9556 34.0849C26.7586 34.2948 26.4916 34.4009 26.2256 34.4009ZM17.6836 25.7049C17.2036 25.7049 16.7796 25.3579 16.6986 24.8679C16.6086 24.3239 16.9766 23.8079 17.5216 23.7189C20.5956 23.2089 22.2956 21.3419 22.3126 21.3229C22.6776 20.9129 23.3106 20.8739 23.7216 21.2389C24.1336 21.6039 24.1746 22.2319 23.8126 22.6449C23.7256 22.7439 21.6566 25.0599 17.8486 25.6909C17.7926 25.7009 17.7376 25.7049 17.6836 25.7049ZM20.6046 30.5619C20.1796 30.5619 19.7856 30.2899 19.6506 29.8639C19.4846 29.3379 19.7766 28.7749 20.3026 28.6089C22.9956 27.7558 24.1826 25.7789 24.1946 25.7589C24.4746 25.2819 25.0866 25.1219 25.5626 25.4019C26.0396 25.6809 26.1986 26.2949 25.9196 26.7699C25.8566 26.8779 24.3246 29.4329 20.9066 30.5139C20.8056 30.5469 20.7036 30.5619 20.6046 30.5619ZM15.9856 19.8919C15.4896 19.8919 15.0586 19.5229 14.9946 19.0169C14.9256 18.4689 15.3136 17.9689 15.8616 17.8989C18.5506 17.5589 20.5186 15.9279 20.5376 15.9109C20.9596 15.5569 21.5906 15.6079 21.9456 16.0299C22.3016 16.4509 22.2506 17.0799 21.8306 17.4369C21.7336 17.5199 19.4106 19.4659 16.1126 19.8829C16.0696 19.8889 16.0276 19.8919 15.9856 19.8919ZM14.1646 15.1249C13.7396 15.1249 13.3456 14.8519 13.2106 14.4239C13.0456 13.8969 13.3376 13.3359 13.8646 13.1699C16.9946 12.1869 18.1176 10.4779 18.1636 10.4059C18.4586 9.94385 19.0746 9.80085 19.5386 10.0939C20.0036 10.3859 20.1496 10.9929 19.8626 11.4599C19.8026 11.5569 18.3566 13.8559 14.4636 15.0789C14.3646 15.1099 14.2636 15.1249 14.1646 15.1249Z" fill="#744EAA"/>
</svg>
