<svg width="210" height="170" viewBox="0 0 210 170" fill="none" xmlns="http://www.w3.org/2000/svg">
<path d="M56.5868 156.716C91.6817 173.825 148.583 173.825 183.678 156.716C218.773 139.607 218.773 111.864 183.678 94.7512C148.583 77.6382 91.6817 77.6423 56.5868 94.7512C21.4919 111.86 21.4919 139.603 56.5868 156.716Z" fill="#6D6D6D" fill-opacity="0.2"/>
<path d="M1.9787 132.148L28.2403 117.686L26.2616 116.594L0 131.056L1.9787 132.148Z" fill="#FAFAFA"/>
<path d="M3.42791 91.1792L29.6895 76.7175L27.7108 75.625L1.44922 90.0868L3.42791 91.1792Z" fill="#FAFAFA"/>
<path d="M52.471 154.451V145.992C52.0488 142.883 50.6674 139.963 48.5023 137.604C44.9984 133.986 41.8575 135.214 40.837 136.934C39.8164 138.653 42.141 141.909 43.6264 143.748C45.4123 145.955 52.4596 156.187 52.4596 160.8L52.471 154.451Z" fill="#455A64"/>
<path d="M52.4708 153.116C52.4194 153.116 52.3698 153.098 52.3305 153.067C52.2911 153.035 52.2646 152.991 52.2554 152.943C50.6565 143.722 43.2974 137.394 43.2237 137.33C43.1842 137.29 43.1621 137.238 43.1621 137.183C43.1621 137.129 43.1842 137.077 43.2237 137.037C43.2437 137.018 43.2675 137.003 43.2938 136.992C43.3201 136.982 43.3483 136.977 43.3767 136.977C43.4052 136.977 43.4334 136.982 43.4597 136.992C43.4859 137.003 43.5098 137.018 43.5298 137.037C43.6092 137.097 51.0761 143.527 52.7033 152.889C52.7115 152.944 52.6971 152.999 52.6632 153.043C52.6293 153.088 52.5786 153.118 52.5218 153.127L52.4708 153.116Z" fill="#FAFAFA"/>
<path d="M52.4699 154.454C52.4699 154.454 52.8214 153.437 51.251 153.177C49.6805 152.918 49.0795 151.674 48.9378 149.586C48.796 147.499 48.127 146 46.1596 145.692C44.1923 145.384 42.6105 146.33 41.3348 145.389C40.0592 144.448 36.7538 142.182 33.9983 143.226C31.2429 144.27 32.1501 146.503 33.5845 147.953C35.0189 149.402 35.4271 149.9 34.3328 152.279C33.2386 154.659 34.0324 156.855 36.5667 157.407C39.101 157.958 40.5354 157.677 40.5354 160.322C40.5354 162.966 40.955 164.151 42.344 165.189C43.7331 166.227 48.093 165.762 49.9073 166.163C50.452 166.296 50.9607 166.539 51.3995 166.875C51.8384 167.211 52.1975 167.631 52.4529 168.11L52.4699 154.454Z" fill="#455A64"/>
<path d="M52.4693 165.357C52.4241 165.357 52.3801 165.344 52.3434 165.318C52.3068 165.293 52.2794 165.258 52.2652 165.217C47.6558 152.172 37.2293 146.899 37.1216 146.829C37.0737 146.801 37.0387 146.756 37.0237 146.705C37.0087 146.653 37.0148 146.598 37.0407 146.551C37.0667 146.503 37.1105 146.467 37.1635 146.449C37.2164 146.432 37.2744 146.434 37.3257 146.455C37.4278 146.509 48.0073 151.864 52.6734 165.065C52.6831 165.091 52.6872 165.118 52.6856 165.145C52.6839 165.172 52.6765 165.199 52.6638 165.223C52.651 165.247 52.6333 165.269 52.6115 165.286C52.5898 165.304 52.5645 165.317 52.5373 165.325C52.5181 165.341 52.4946 165.353 52.4693 165.357Z" fill="#FAFAFA"/>
<path d="M45.8596 153.99H45.8256C42.815 153.335 38.0015 153.692 37.9505 153.692C37.9222 153.695 37.8937 153.691 37.8667 153.683C37.8396 153.675 37.8146 153.661 37.793 153.644C37.7714 153.626 37.7537 153.605 37.7408 153.581C37.7279 153.556 37.7202 153.53 37.7181 153.503C37.7149 153.476 37.7177 153.448 37.7261 153.422C37.7345 153.396 37.7484 153.372 37.767 153.351C37.7856 153.331 37.8085 153.314 37.8342 153.302C37.8599 153.29 37.8879 153.283 37.9165 153.281C38.1206 153.281 42.849 152.919 45.922 153.59C45.9736 153.601 46.019 153.63 46.0494 153.672C46.0798 153.713 46.0931 153.764 46.0868 153.814C46.0805 153.864 46.055 153.911 46.0152 153.944C45.9753 153.977 45.924 153.996 45.871 153.995L45.8596 153.99Z" fill="#FAFAFA"/>
<path d="M48.3116 160.26C46.9339 160.26 45.4768 160.174 45.3861 160.169C45.3284 160.164 45.2748 160.139 45.2366 160.097C45.1985 160.056 45.1788 160.002 45.182 159.947C45.1834 159.919 45.1906 159.892 45.2031 159.868C45.2157 159.843 45.2333 159.821 45.255 159.803C45.2767 159.784 45.302 159.771 45.3293 159.762C45.3567 159.753 45.3857 159.75 45.4144 159.752C46.9811 159.857 48.5535 159.857 50.1202 159.752C50.1766 159.744 50.2338 159.758 50.2795 159.791C50.3252 159.823 50.3556 159.871 50.364 159.925C50.3688 159.952 50.3679 159.98 50.3614 160.007C50.3548 160.033 50.3428 160.058 50.3259 160.081C50.3089 160.103 50.2876 160.122 50.2629 160.136C50.2383 160.15 50.211 160.159 50.1826 160.163C49.562 160.237 48.9369 160.27 48.3116 160.26V160.26Z" fill="#FAFAFA"/>
<path d="M44.4486 152.458C44.3909 152.453 44.3373 152.428 44.2991 152.386C44.2609 152.345 44.2413 152.291 44.2445 152.236C44.3481 150.743 44.6746 149.271 45.214 147.866C45.2354 147.816 45.2765 147.776 45.3285 147.755C45.3805 147.734 45.4391 147.733 45.4918 147.752C45.5187 147.761 45.5434 147.775 45.5644 147.794C45.5854 147.812 45.6022 147.834 45.6139 147.859C45.6256 147.884 45.6318 147.911 45.6323 147.938C45.6327 147.965 45.6273 147.992 45.6165 148.017C45.1002 149.385 44.7835 150.813 44.6754 152.263C44.6739 152.29 44.6669 152.316 44.6547 152.341C44.6425 152.365 44.6254 152.387 44.6043 152.405C44.5833 152.423 44.5586 152.437 44.5319 152.446C44.5052 152.455 44.4769 152.459 44.4486 152.458V152.458Z" fill="#FAFAFA"/>
<path d="M52.4023 70.76V168.996C52.4023 169.894 53.06 170.256 53.8764 169.807L177.599 101.663C178.026 101.395 178.381 101.035 178.635 100.613C178.889 100.19 179.035 99.7159 179.061 99.2292V1.00383C179.061 0.106053 178.404 -0.256303 177.593 0.192585L53.8708 68.3371C53.4442 68.603 53.0891 68.9609 52.8341 69.3817C52.579 69.8025 52.4311 70.2746 52.4023 70.76V70.76Z" fill="#5BA3D7" fill-opacity="0.5"/>
<path d="M177.599 0.192585L53.8764 68.3371C53.4474 68.6035 53.0902 68.9628 52.8341 69.3857C52.578 69.8085 52.43 70.2831 52.4023 70.7708V76.9146L179.061 6.99081V1.00383C179.061 0.106053 178.409 -0.256303 177.599 0.192585Z" fill="#455A64"/>
<path d="M161.799 11.1008C161.377 11.363 161.026 11.7168 160.775 12.1332C160.524 12.5496 160.379 13.0168 160.354 13.4966C160.354 14.3782 161 14.7351 161.805 14.2971C162.227 14.033 162.578 13.6782 162.83 13.2611C163.082 12.8441 163.228 12.3764 163.256 11.8958C163.251 11.0142 162.621 10.6573 161.799 11.1008Z" fill="white"/>
<path d="M167.551 7.92444C167.129 8.18734 166.778 8.54115 166.526 8.95733C166.274 9.37351 166.128 9.8404 166.1 10.3203C166.1 11.2073 166.752 11.5642 167.551 11.1207C167.974 10.8591 168.326 10.5056 168.579 10.0892C168.831 9.67272 168.976 9.20519 169.002 8.72487C169.002 7.82709 168.356 7.48637 167.551 7.92444Z" fill="white"/>
<path d="M173.311 4.75298C172.889 5.01588 172.538 5.36969 172.286 5.78587C172.034 6.20205 171.888 6.66893 171.859 7.14885C171.859 8.0304 172.511 8.39276 173.311 7.94928C173.733 7.68638 174.084 7.33257 174.336 6.91639C174.588 6.50021 174.734 6.03333 174.762 5.55341C174.762 4.66645 174.11 4.3095 173.311 4.75298Z" fill="white"/>
<path d="M92.1427 68.1778V97.3826L65.6373 111.985V82.7802L92.1427 68.1778ZM92.7096 67.2422L65.0703 82.4665V112.91L92.7096 97.6855V67.2422V67.2422Z" fill="#FAFAFA"/>
<path d="M101.639 93.0744V62.0092L129.839 46.4766V77.5418L101.639 93.0744ZM102.206 62.3228V92.1388L129.272 77.2281V47.4122L102.206 62.3228Z" fill="#FAFAFA"/>
<path d="M119.303 61.8124L120.789 58.7514C119.145 58.53 117.471 58.8546 116.049 59.6708V62.456C117.032 61.9102 118.174 61.6843 119.303 61.8124Z" fill="#5B8DD7"/>
<path d="M121.8 63.8849L124.204 61.7216C123.973 61.0693 123.588 60.476 123.08 59.9868C122.572 59.4976 121.954 59.1254 121.273 58.8984L119.793 61.9595C120.253 62.1231 120.671 62.38 121.018 62.7123C121.364 63.0447 121.631 63.4447 121.8 63.8849Z" fill="#5B8DD7"/>
<path d="M112.161 77.7382L110.682 80.7939C112.322 81.0254 113.996 80.7041 115.416 79.8853V77.1055C114.434 77.6536 113.29 77.8761 112.161 77.7382Z" fill="#5B8DD7"/>
<path d="M119.816 73.1202L121.296 74.548C122.612 72.6963 123.602 70.6521 124.227 68.4961L121.801 68.9396C121.372 70.4233 120.702 71.8339 119.816 73.1202V73.1202Z" fill="#5B8DD7"/>
<path d="M116.049 76.7654V79.5453C117.899 78.4014 119.506 76.9333 120.783 75.2187L119.303 73.8125C118.412 74.9747 117.31 75.9748 116.049 76.7654V76.7654Z" fill="#5B8DD7"/>
<path d="M124.418 62.25L122.02 64.4133C122.178 64.985 122.256 65.5742 122.252 66.1656C122.246 66.842 122.168 67.5161 122.02 68.1775L124.418 67.7178C124.644 66.7536 124.762 65.7691 124.769 64.7811C124.777 63.9259 124.659 63.0739 124.418 62.25Z" fill="#5B8DD7"/>
<g opacity="0.2">
<path d="M119.303 61.8085L120.789 58.7474C119.145 58.5261 117.471 58.8507 116.049 59.6669V62.4521C117.032 61.9063 118.174 61.6804 119.303 61.8085Z" fill="black"/>
<path d="M121.8 63.881L124.204 61.7177C123.973 61.0654 123.588 60.4721 123.08 59.9829C122.572 59.4937 121.954 59.1215 121.273 58.8945L119.793 61.9556C120.253 62.1192 120.671 62.3761 121.018 62.7084C121.364 63.0408 121.631 63.4408 121.8 63.881Z" fill="black"/>
<path d="M112.161 77.7421L110.682 80.7978C112.322 81.0293 113.996 80.708 115.416 79.8892V77.1094C114.434 77.6575 113.29 77.88 112.161 77.7421Z" fill="black"/>
<path d="M119.814 73.1241L121.294 74.5519C122.61 72.7002 123.6 70.656 124.225 68.5L121.799 68.9435C121.37 70.4272 120.7 71.8378 119.814 73.1241V73.1241Z" fill="black"/>
<path d="M116.049 76.7615V79.5414C117.899 78.3975 119.506 76.9294 120.783 75.2148L119.303 73.8086C118.412 74.9708 117.31 75.9709 116.049 76.7615V76.7615Z" fill="black"/>
<path d="M124.418 62.2539L122.02 64.4172C122.178 64.9889 122.256 65.5782 122.252 66.1695C122.246 66.8459 122.168 67.52 122.02 68.1814L124.418 67.7217C124.644 66.7575 124.762 65.773 124.769 64.785C124.777 63.9298 124.659 63.0778 124.418 62.2539Z" fill="black"/>
</g>
<path d="M115.424 62.7877V60.0078C113.572 61.1501 111.965 62.6185 110.689 64.3344L112.169 65.7622C113.056 64.5909 114.159 63.583 115.424 62.7877Z" fill="#FAFAFA"/>
<path d="M111.661 66.4278L110.181 65C108.863 66.8484 107.873 68.8912 107.25 71.0465L109.648 70.5868C110.086 69.1082 110.765 67.7047 111.661 66.4278V66.4278Z" fill="#FAFAFA"/>
<path d="M109.219 73.3634C109.227 72.6869 109.307 72.0129 109.457 71.3516L107.059 71.8167C106.833 72.7791 106.715 73.7617 106.708 74.748C106.699 75.6104 106.817 76.4697 107.059 77.3007L109.457 75.1374C109.295 74.5589 109.215 73.9623 109.219 73.3634V73.3634Z" fill="#FAFAFA"/>
<path d="M109.648 75.6758L107.25 77.8391C107.481 78.4911 107.865 79.0841 108.373 79.5725C108.881 80.061 109.499 80.4319 110.181 80.6568L111.661 77.6011C111.199 77.4382 110.78 77.1817 110.433 76.8492C110.086 76.5168 109.818 76.1165 109.648 75.6758V75.6758Z" fill="#FAFAFA"/>
<path d="M110.346 72.7271C110.346 69.4443 112.761 65.4584 115.738 63.8197C118.714 62.1809 121.129 63.506 121.129 66.7888C121.129 70.0716 118.714 74.0576 115.738 75.6963C112.761 77.335 110.346 76.0208 110.346 72.7271Z" fill="#5B8DD7"/>
<path opacity="0.2" d="M110.346 72.7271C110.346 69.4443 112.761 65.4584 115.738 63.8197C118.714 62.1809 121.129 63.506 121.129 66.7888C121.129 70.0716 118.714 74.0576 115.738 75.6963C112.761 77.335 110.346 76.0208 110.346 72.7271Z" fill="black"/>
<path d="M115.205 68.0849C115.217 68.2957 115.217 68.5069 115.205 68.7177C115.195 68.8916 115.165 69.0639 115.115 69.2314C115.066 69.4066 114.992 69.5742 114.894 69.729C114.683 70.0759 114.38 70.3633 114.015 70.5619C113.858 70.6567 113.682 70.721 113.499 70.7512C113.375 70.7747 113.246 70.7556 113.136 70.6971C113.036 70.6364 112.959 70.5476 112.915 70.4429C112.861 70.3118 112.83 70.1728 112.824 70.0319C112.824 69.9237 112.824 69.8209 112.824 69.7236C112.824 69.6262 112.824 69.5181 112.824 69.3937C112.833 69.2108 112.864 69.0294 112.915 68.8529C112.967 68.6807 113.041 68.5154 113.136 68.3607C113.236 68.1935 113.358 68.039 113.499 67.901C113.653 67.7551 113.826 67.6296 114.015 67.5278C114.173 67.4332 114.348 67.3672 114.531 67.3331C114.655 67.3139 114.783 67.3348 114.894 67.3926C114.993 67.4533 115.071 67.5422 115.115 67.6468C115.169 67.7873 115.2 67.9352 115.205 68.0849V68.0849ZM117.099 66.0568C117.128 65.9936 117.164 65.9337 117.207 65.8783C117.251 65.8243 117.307 65.7801 117.371 65.7485L117.995 65.4078C118.012 65.393 118.034 65.3827 118.056 65.378C118.079 65.3732 118.103 65.3742 118.125 65.3807C118.159 65.3807 118.176 65.424 118.176 65.4727C118.178 65.487 118.178 65.5016 118.176 65.5159C118.179 65.5375 118.179 65.5593 118.176 65.5808L114.429 73.0713C114.397 73.1323 114.359 73.1902 114.315 73.2444C114.272 73.2986 114.218 73.3445 114.157 73.3796L113.533 73.7203C113.513 73.7295 113.49 73.7342 113.468 73.7342C113.445 73.7342 113.423 73.7295 113.403 73.7203C113.368 73.7203 113.351 73.6771 113.351 73.6284C113.351 73.5797 113.351 73.6013 113.351 73.5797C113.351 73.5581 113.351 73.5419 113.351 73.5202L117.099 66.0568ZM113.697 69.5019C113.695 69.6026 113.723 69.7019 113.777 69.7885C113.816 69.8372 113.896 69.8264 114.009 69.7885C114.109 69.7367 114.189 69.655 114.236 69.5559C114.286 69.4371 114.315 69.3109 114.321 69.1828C114.332 69.0026 114.332 68.8221 114.321 68.6419C114.322 68.5423 114.293 68.4445 114.236 68.3607C114.196 68.312 114.117 68.3174 114.009 68.3607C113.906 68.4105 113.824 68.4926 113.777 68.5933C113.728 68.7125 113.702 68.8387 113.697 68.9664C113.684 69.1393 113.686 69.313 113.703 69.4856L113.697 69.5019ZM118.715 69.0692C118.726 69.2818 118.726 69.4948 118.715 69.7074C118.703 69.879 118.675 70.0492 118.63 70.2158C118.53 70.5742 118.334 70.9019 118.063 71.1676C117.911 71.3168 117.737 71.4443 117.547 71.5462C117.39 71.641 117.214 71.7053 117.031 71.7355C116.907 71.7616 116.778 71.7423 116.668 71.6814C116.569 71.6207 116.491 71.5319 116.447 71.4272C116.393 71.2961 116.362 71.1571 116.356 71.0162C116.356 70.908 116.356 70.8053 116.356 70.7133C116.356 70.6214 116.356 70.5024 116.356 70.378C116.367 70.2059 116.398 70.0354 116.447 69.8696C116.499 69.6958 116.574 69.5287 116.668 69.3721C116.767 69.2056 116.889 69.0528 117.031 68.9178C117.183 68.7686 117.357 68.6411 117.547 68.5392C117.704 68.4444 117.88 68.3801 118.063 68.3499C118.187 68.3238 118.316 68.3431 118.426 68.404C118.525 68.4646 118.603 68.5535 118.647 68.6582C118.695 68.7903 118.72 68.9292 118.721 69.0692H118.715ZM117.212 70.4916C117.213 70.5903 117.24 70.6872 117.292 70.7728C117.337 70.8215 117.411 70.8161 117.524 70.7728C117.626 70.7213 117.708 70.6397 117.757 70.5402C117.802 70.4203 117.829 70.2945 117.836 70.1671C117.847 69.9869 117.847 69.8064 117.836 69.6262C117.836 69.5275 117.808 69.4306 117.757 69.345C117.711 69.2963 117.638 69.3018 117.524 69.345C117.423 69.3965 117.341 69.4781 117.292 69.5776C117.246 69.6975 117.219 69.8233 117.212 69.9507C117.198 70.1308 117.2 70.3118 117.218 70.4916H117.212Z" fill="#FAFAFA"/>
<path d="M138.486 72.7829V41.7123L166.687 26.1797V57.2503L138.486 72.7829ZM139.053 42.026V71.8419L166.12 56.9366V27.1207L139.053 42.026Z" fill="#FAFAFA"/>
<path d="M152.275 42.4911V39.7383C150.421 40.88 148.812 42.3485 147.535 44.0649L149.021 45.4981C149.904 44.3147 151.007 43.2955 152.275 42.4911V42.4911Z" fill="#FAFAFA"/>
<path d="M148.507 46.1309L147.027 44.7031C145.708 46.5509 144.717 48.5939 144.096 50.7496L146.494 50.2845C146.935 48.8089 147.614 47.4077 148.507 46.1309V46.1309Z" fill="#FAFAFA"/>
<path d="M156.151 41.521L157.636 38.4545C155.993 38.2331 154.319 38.5578 152.896 39.3739V42.1483C153.879 41.6033 155.023 41.3828 156.151 41.521V41.521Z" fill="#5B8DD7"/>
<path d="M158.651 43.5826L161.05 41.4193C160.818 40.7677 160.434 40.1751 159.926 39.6867C159.418 39.1984 158.8 38.8272 158.118 38.6016L156.639 41.6572C157.1 41.8202 157.519 42.0767 157.867 42.4091C158.214 42.7415 158.482 43.1419 158.651 43.5826V43.5826Z" fill="#5B8DD7"/>
<path d="M149.015 57.4399L147.535 60.501C148.896 60.766 150.523 60.501 152.275 59.587V56.8125C151.29 57.3588 150.144 57.5793 149.015 57.4399V57.4399Z" fill="#5B8DD7"/>
<path d="M161.265 41.9609L158.867 44.1243C159.028 44.6975 159.108 45.2886 159.105 45.8819C159.097 46.5585 159.017 47.2325 158.867 47.8938L161.265 47.4341C161.491 46.4699 161.609 45.4854 161.617 44.4974C161.624 43.6404 161.506 42.7867 161.265 41.9609Z" fill="#5B8DD7"/>
<path d="M156.662 52.8257L158.142 54.2535C159.46 52.4051 160.45 50.3623 161.073 48.207L158.675 48.6721C158.233 50.1477 157.554 51.5489 156.662 52.8257V52.8257Z" fill="#5B8DD7"/>
<path d="M146.065 53.0666C146.073 52.39 146.153 51.7159 146.303 51.0547L143.905 51.5144C143.679 52.4786 143.561 53.4631 143.553 54.4511C143.544 55.3118 143.662 56.1693 143.905 56.9984L146.303 54.8351C146.142 54.2583 146.062 53.6635 146.065 53.0666V53.0666Z" fill="#5B8DD7"/>
<path d="M146.494 55.375L144.096 57.5383C144.327 58.1899 144.711 58.7825 145.219 59.2709C145.727 59.7592 146.346 60.1304 147.027 60.356L148.507 57.3004C148.045 57.1374 147.626 56.8809 147.279 56.5485C146.931 56.2161 146.663 55.8157 146.494 55.375V55.375Z" fill="#5B8DD7"/>
<path d="M152.896 56.4661V59.2406C154.748 58.1068 156.356 56.6477 157.636 54.941L156.157 53.5078C155.265 54.6731 154.161 55.6753 152.896 56.4661V56.4661Z" fill="#5B8DD7"/>
<g opacity="0.2">
<path d="M156.149 41.5093L157.634 38.4428C155.991 38.2214 154.317 38.546 152.895 39.3622V42.1366C153.877 41.5915 155.021 41.371 156.149 41.5093V41.5093Z" fill="black"/>
<path d="M158.653 43.5748L161.052 41.4115C160.82 40.7598 160.436 40.1672 159.928 39.6789C159.42 39.1906 158.802 38.8194 158.12 38.5938L156.641 41.6494C157.102 41.8124 157.521 42.0689 157.869 42.4013C158.216 42.7337 158.484 43.1341 158.653 43.5748V43.5748Z" fill="black"/>
<path d="M149.013 57.4399L147.533 60.501C148.894 60.766 150.521 60.501 152.273 59.587V56.8125C151.289 57.3588 150.142 57.5793 149.013 57.4399V57.4399Z" fill="black"/>
<path d="M161.265 41.9492L158.867 44.1125C159.028 44.6858 159.108 45.2769 159.105 45.8702C159.097 46.5468 159.017 47.2208 158.867 47.8821L161.265 47.4224C161.491 46.4582 161.609 45.4737 161.617 44.4857C161.624 43.6287 161.506 42.775 161.265 41.9492Z" fill="black"/>
<path d="M156.662 52.814L158.142 54.2418C159.46 52.3934 160.45 50.3506 161.073 48.1953L158.675 48.6604C158.233 50.136 157.554 51.5372 156.662 52.814V52.814Z" fill="black"/>
<path d="M146.065 53.0549C146.073 52.3783 146.153 51.7042 146.303 51.043L143.905 51.5027C143.679 52.4669 143.561 53.4514 143.553 54.4394C143.544 55.3 143.662 56.1576 143.905 56.9867L146.303 54.8234C146.142 54.2466 146.062 53.6518 146.065 53.0549V53.0549Z" fill="black"/>
<path d="M146.496 55.3633L144.098 57.5266C144.329 58.1782 144.713 58.7708 145.221 59.2592C145.729 59.7475 146.348 60.1187 147.029 60.3443L148.509 57.2886C148.047 57.1257 147.628 56.8692 147.281 56.5367C146.933 56.2043 146.665 55.804 146.496 55.3633V55.3633Z" fill="black"/>
<path d="M152.895 56.4622V59.2367C154.746 58.1029 156.354 56.6438 157.634 54.9371L156.155 53.5039C155.263 54.6692 154.159 55.6714 152.895 56.4622V56.4622Z" fill="black"/>
</g>
<path d="M147.191 52.4473C147.191 49.1698 149.607 45.1839 152.583 43.5398C155.56 41.8957 157.975 43.2315 157.975 46.509C157.975 49.7864 155.56 53.7993 152.583 55.4218C149.607 57.0443 147.191 55.7301 147.191 52.4473Z" fill="#5B8DD7"/>
<path opacity="0.2" d="M147.191 52.4473C147.191 49.1698 149.607 45.1839 152.583 43.5398C155.56 41.8957 157.975 43.2315 157.975 46.509C157.975 49.7864 155.56 53.7993 152.583 55.4218C149.607 57.0443 147.191 55.7301 147.191 52.4473Z" fill="black"/>
<path d="M152.053 47.7903C152.065 48.001 152.065 48.2122 152.053 48.423C152.042 48.5964 152.013 48.7684 151.968 48.9368C151.915 49.1085 151.841 49.2737 151.747 49.429C151.645 49.5961 151.521 49.7505 151.379 49.8887C151.225 50.0345 151.051 50.1601 150.863 50.2618C150.704 50.3556 150.53 50.4216 150.347 50.4565C150.223 50.4774 150.095 50.4584 149.984 50.4025C149.884 50.3418 149.807 50.2529 149.763 50.1483C149.709 50.0152 149.678 49.8745 149.672 49.7318C149.667 49.6309 149.667 49.5298 149.672 49.429C149.672 49.3316 149.672 49.2234 149.672 49.0991C149.683 48.9252 149.713 48.7529 149.763 48.5853C149.816 48.4118 149.89 48.2448 149.984 48.0877C150.083 47.9213 150.205 47.7685 150.347 47.6334C150.5 47.4875 150.674 47.362 150.863 47.2602C151.021 47.1664 151.196 47.1005 151.379 47.0655C151.503 47.0447 151.63 47.0637 151.741 47.1196C151.841 47.1803 151.918 47.2692 151.963 47.3738C152.017 47.5069 152.047 47.6476 152.053 47.7903V47.7903ZM153.947 45.7621C153.978 45.7 154.014 45.6404 154.055 45.5837C154.1 45.5309 154.156 45.4868 154.219 45.4539L154.843 45.1077C154.881 45.0827 154.928 45.073 154.973 45.0807C155.007 45.0807 155.024 45.124 155.024 45.178C155.024 45.2321 155.024 45.178 155.024 45.2213C155.026 45.2429 155.026 45.2646 155.024 45.2862L151.282 52.7713C151.251 52.8334 151.215 52.8931 151.175 52.9498C151.13 53.0037 151.074 53.048 151.01 53.0796L150.386 53.4257C150.368 53.4383 150.347 53.4473 150.324 53.4519C150.302 53.4566 150.279 53.4568 150.256 53.4527C150.222 53.4527 150.205 53.4095 150.205 53.3554C150.203 53.341 150.203 53.3265 150.205 53.3121C150.203 53.2905 150.203 53.2688 150.205 53.2472L153.947 45.7621ZM150.545 49.2072C150.544 49.3061 150.572 49.4034 150.625 49.4885C150.67 49.5371 150.744 49.5317 150.857 49.4885C150.958 49.4338 151.039 49.3507 151.089 49.2505C151.135 49.1324 151.162 49.0084 151.169 48.8827C151.18 48.7026 151.18 48.522 151.169 48.3419C151.17 48.243 151.142 48.1457 151.089 48.0607C151.044 48.012 150.97 48.0174 150.857 48.0607C150.756 48.1154 150.675 48.1984 150.625 48.2986C150.579 48.4167 150.552 48.5407 150.545 48.6664C150.536 48.8466 150.538 49.0272 150.551 49.2072H150.545ZM155.563 48.7746C155.58 48.9852 155.58 49.1967 155.563 49.4073C155.553 49.5899 155.525 49.771 155.478 49.9482C155.424 50.1213 155.349 50.2882 155.257 50.4457C155.156 50.6121 155.032 50.7649 154.888 50.9C154.733 51.046 154.56 51.1732 154.372 51.2786C154.214 51.3719 154.039 51.4361 153.856 51.4679C153.732 51.4914 153.604 51.4723 153.493 51.4138C153.394 51.3531 153.316 51.2643 153.272 51.1596C153.221 51.0275 153.191 50.8891 153.182 50.7486C153.182 50.6404 153.182 50.5377 153.182 50.4403C153.182 50.343 153.182 50.2348 153.182 50.1104C153.195 49.9368 153.226 49.7649 153.272 49.5966C153.325 49.4231 153.4 49.2562 153.493 49.0991C153.595 48.9344 153.717 48.7819 153.856 48.6448C154.011 48.5002 154.184 48.3748 154.372 48.2716C154.531 48.1778 154.705 48.1118 154.888 48.0769C155.012 48.056 155.14 48.075 155.251 48.131C155.351 48.1916 155.428 48.2805 155.472 48.3852C155.525 48.5095 155.557 48.6408 155.568 48.7746H155.563ZM154.06 50.1915C154.059 50.2904 154.087 50.3877 154.14 50.4728C154.185 50.5214 154.264 50.516 154.372 50.4728C154.476 50.4209 154.558 50.337 154.605 50.2348C154.653 50.1176 154.68 49.9931 154.684 49.867C154.7 49.6871 154.7 49.5061 154.684 49.3262C154.687 49.227 154.66 49.1292 154.605 49.045C154.559 48.9963 154.486 49.0017 154.372 49.045C154.271 49.0997 154.19 49.1827 154.14 49.2829C154.095 49.4012 154.068 49.5251 154.06 49.6507C154.051 49.8309 154.053 50.0115 154.066 50.1915H154.06Z" fill="#FAFAFA"/>
<path d="M65.0684 120.524V150.967L92.7077 135.743V105.305L65.0684 120.524Z" fill="#5B8DD7"/>
<path opacity="0.7" d="M65.0684 120.524V150.967L92.7077 135.743V105.305L65.0684 120.524Z" fill="#FAFAFA"/>
<path d="M65.0684 128.572C66.0038 128.918 67.2115 128.777 68.5268 128.031C71.5034 126.409 73.9186 122.401 73.9186 119.124C73.9905 118.058 73.6176 117.008 72.8811 116.203L65.0684 120.503V128.572Z" fill="#5B8DD7"/>
<path d="M77.2441 129.323C77.5163 128.468 78.0549 128.43 78.4461 129.247L82.3468 137.359L88.1581 116.37C88.4019 115.504 88.8045 115.499 89.0539 116.37L92.7108 128.76V135.748L71.4668 147.451L77.2441 129.323Z" fill="#5B8DD7"/>
<g opacity="0.2">
<path d="M65.0684 128.568C66.0038 128.914 67.2115 128.773 68.5268 128.027C71.5034 126.405 73.9186 122.397 73.9186 119.12C73.9905 118.054 73.6176 117.004 72.8811 116.199L65.0684 120.499V128.568Z" fill="black"/>
<path d="M77.2441 129.319C77.5163 128.464 78.0549 128.426 78.4461 129.243L82.3468 137.355L88.1581 116.366C88.4019 115.501 88.8045 115.495 89.0539 116.366L92.7108 128.756V135.744L71.4668 147.447L77.2441 129.319Z" fill="black"/>
</g>
<path d="M92.1407 106.262V135.467L65.6353 150.069V120.864L92.1407 106.262ZM92.7077 105.326L65.0684 120.545V150.989L92.7077 135.764V105.305V105.326Z" fill="#5B8DD7"/>
<path opacity="0.7" d="M92.1407 106.262V135.467L65.6353 150.069V120.864L92.1407 106.262ZM92.7077 105.326L65.0684 120.545V150.989L92.7077 135.764V105.305V105.326Z" fill="#FAFAFA"/>
<path d="M101.922 100.231V130.669L129.556 115.45V85.0117L101.922 100.231Z" fill="#5B8DD7"/>
<path opacity="0.7" d="M101.922 100.231V130.669L129.556 115.45V85.0117L101.922 100.231Z" fill="#FAFAFA"/>
<path d="M101.922 108.279C102.857 108.625 104.059 108.479 105.375 107.738C108.351 106.116 110.766 102.108 110.766 98.8252C110.837 97.761 110.465 96.7131 109.729 95.9102L101.922 100.21V108.279Z" fill="#5B8DD7"/>
<path d="M114.09 109.027C114.368 108.167 114.906 108.135 115.297 108.946L119.192 117.059L125.01 96.069C125.248 95.2037 125.65 95.1983 125.905 96.069L129.557 108.454V115.452L108.312 127.15L114.09 109.027Z" fill="#5B8DD7"/>
<g opacity="0.2">
<path d="M101.922 108.279C102.857 108.625 104.059 108.479 105.375 107.738C108.351 106.116 110.766 102.108 110.766 98.8252C110.837 97.761 110.465 96.7131 109.729 95.9102L101.922 100.21V108.279Z" fill="black"/>
<path d="M114.09 109.031C114.368 108.171 114.906 108.139 115.297 108.95L119.192 117.062L125.01 96.0729C125.248 95.2076 125.65 95.2022 125.905 96.0729L129.557 108.458V115.456L108.312 127.154L114.09 109.031Z" fill="black"/>
</g>
<path d="M128.989 85.945V115.15L102.489 129.752V100.547L128.989 85.945ZM129.556 85.0039L101.922 100.228V130.666L129.556 115.453V85.0039Z" fill="#5B8DD7"/>
<path opacity="0.7" d="M128.989 85.945V115.15L102.489 129.752V100.547L128.989 85.945ZM129.556 85.0039L101.922 100.228V130.666L129.556 115.453V85.0039Z" fill="#FAFAFA"/>
<path d="M138.768 79.9338V110.377L166.401 95.1581V64.7148L138.768 79.9338Z" fill="#5B8DD7"/>
<path opacity="0.7" d="M138.768 79.9338V110.377L166.401 95.1581V64.7148L138.768 79.9338Z" fill="#FAFAFA"/>
<path d="M138.768 87.986C139.703 88.3321 140.905 88.1861 142.22 87.4451C145.197 85.8226 147.612 81.8205 147.612 78.5377C147.683 77.4718 147.31 76.4224 146.575 75.6172L138.768 79.9168V87.986Z" fill="#5B8DD7"/>
<path d="M150.936 88.7323C151.213 87.8777 151.752 87.8453 152.143 88.6565L156.038 96.769L161.855 75.774C162.093 74.9087 162.496 74.9087 162.751 75.774L166.402 88.1644V95.1573L145.158 106.855L150.936 88.7323Z" fill="#5B8DD7"/>
<g opacity="0.2">
<path d="M138.768 87.986C139.703 88.3321 140.905 88.1861 142.22 87.4451C145.197 85.8226 147.612 81.8205 147.612 78.5377C147.683 77.4718 147.31 76.4224 146.575 75.6172L138.768 79.9168V87.986Z" fill="black"/>
<path d="M150.936 88.7323C151.213 87.8777 151.752 87.8453 152.143 88.6565L156.038 96.769L161.855 75.774C162.093 74.9087 162.496 74.9087 162.751 75.774L166.402 88.1644V95.1573L145.158 106.855L150.936 88.7323Z" fill="black"/>
</g>
<path d="M165.834 65.6505V94.8553L139.335 109.458V80.2529L165.834 65.6505ZM166.401 64.7148L138.768 79.9338V110.377L166.401 95.1581V64.7148Z" fill="#5B8DD7"/>
<path opacity="0.7" d="M165.834 65.6505V94.8553L139.335 109.458V80.2529L165.834 65.6505ZM166.401 64.7148L138.768 79.9338V110.377L166.401 95.1581V64.7148Z" fill="#FAFAFA"/>
<path d="M162.951 75.1289L171.093 77.2003L168.349 78.6767L173.327 82.1543L172.68 83.1061L167.555 79.607L166.875 82.4625L162.951 75.1289Z" fill="#455A64"/>
<path d="M205.234 56.0012L187.454 65.7902C187.025 66.0566 186.668 66.4159 186.412 66.8388C186.156 67.2617 186.008 67.7362 185.98 68.2239V81.9231L181.445 86.3904C180.793 87.034 181.019 87.472 181.949 87.3639L185.958 86.915V92.8965C185.958 93.7889 186.615 94.1567 187.432 93.7078L205.212 83.9134C205.641 83.6472 205.998 83.288 206.255 82.8651C206.511 82.4421 206.658 81.9674 206.686 81.4796V56.8124C206.708 55.9146 206.051 55.5523 205.234 56.0012Z" fill="#455A64"/>
<path d="M198.972 63.2369L202.941 61.0736C203.752 60.6247 204.415 60.8303 204.415 61.5333C204.354 61.9644 204.189 62.3762 203.933 62.7365C203.677 63.0967 203.338 63.3957 202.941 63.6101L198.972 65.7734C198.156 66.2223 197.498 66.0168 197.498 65.3137C197.558 64.8822 197.723 64.47 197.978 64.1096C198.234 63.7491 198.574 63.4504 198.972 63.2369V63.2369Z" fill="#FAFAFA"/>
<path d="M190.465 75.3661L194.433 73.2028C195.25 72.7539 195.907 72.9594 195.907 73.6571C195.848 74.0895 195.684 74.5029 195.428 74.8643C195.172 75.2257 194.832 75.5253 194.433 75.7393L190.465 77.9026C189.654 78.3515 188.996 78.146 188.996 77.4483C189.056 77.0166 189.219 76.6039 189.474 76.2427C189.729 75.8814 190.068 75.5813 190.465 75.3661V75.3661Z" fill="#FAFAFA"/>
<path d="M190.465 80.6518L202.938 73.7887C203.748 73.3398 204.412 73.5453 204.412 74.243C204.351 74.6751 204.187 75.0879 203.931 75.4492C203.675 75.8104 203.335 76.1103 202.938 76.3252L190.465 83.1883C189.654 83.6372 188.996 83.4317 188.996 82.734C189.056 82.3023 189.219 81.8897 189.474 81.5284C189.729 81.1671 190.068 80.8671 190.465 80.6518V80.6518Z" fill="#FAFAFA"/>
<path d="M190.465 85.5891L202.938 78.726C203.748 78.2771 204.412 78.4826 204.412 79.1857C204.35 79.6168 204.185 80.0285 203.93 80.3888C203.674 80.749 203.335 81.048 202.938 81.2625L190.465 88.1256C189.654 88.5745 188.996 88.369 188.996 87.6713C189.056 87.2396 189.219 86.8269 189.474 86.4656C189.729 86.1044 190.068 85.8043 190.465 85.5891V85.5891Z" fill="#FAFAFA"/>
<path d="M66.5996 83.8306V115.504L95.1737 99.6674V67.9883L66.5996 83.8306Z" fill="#5B8DD7"/>
<path opacity="0.7" d="M66.5996 83.8306V115.504L95.1737 99.6674V67.9883L66.5996 83.8306Z" fill="#FAFAFA"/>
<path d="M66.5996 92.1968C67.5667 92.557 68.8152 92.405 70.175 91.634C73.2522 89.9457 75.7492 85.7754 75.7492 82.3593C75.821 81.2504 75.4357 80.1589 74.6765 79.3203L66.5996 83.8226V92.1968Z" fill="#5B8DD7"/>
<path opacity="0.2" d="M66.5996 92.1968C67.5667 92.557 68.8152 92.405 70.175 91.634C73.2522 89.9457 75.7492 85.7754 75.7492 82.3593C75.821 81.2504 75.4357 80.1589 74.6765 79.3203L66.5996 83.8226V92.1968Z" fill="black"/>
<path d="M79.1837 92.9821C79.465 92.0872 80.0218 92.0535 80.4263 92.8976L84.4589 101.339L90.4726 79.4978C90.7188 78.5973 91.1349 78.5917 91.3928 79.4978L95.1734 92.3911V99.6679L73.2109 111.841L79.1837 92.9821Z" fill="#5B8DD7"/>
<path opacity="0.2" d="M79.1837 92.9821C79.465 92.0872 80.0218 92.0535 80.4263 92.8976L84.4589 101.339L90.4726 79.4978C90.7188 78.5973 91.1349 78.5917 91.3928 79.4978L95.1734 92.3911V99.6679L73.2109 111.841L79.1837 92.9821Z" fill="black"/>
<path d="M94.5875 68.9675V99.3579L67.1857 114.553V84.1627L94.5875 68.9675ZM95.1737 67.9883L66.5996 83.8306V115.504L95.1737 99.6674V67.9883V67.9883Z" fill="#5B8DD7"/>
<path opacity="0.7" d="M94.5875 68.9675V99.3579L67.1857 114.553V84.1627L94.5875 68.9675ZM95.1737 67.9883L66.5996 83.8306V115.504L95.1737 99.6674V67.9883V67.9883Z" fill="#FAFAFA"/>
<path d="M66.5985 115.5L64.2188 114.183V82.5039L66.5985 83.8265V115.5Z" fill="#5B8DD7"/>
<path opacity="0.1" d="M66.5985 115.5L64.2188 114.183V82.5039L66.5985 83.8265V115.5Z" fill="#FAFAFA"/>
<path d="M64.2188 82.5047L92.7869 66.668L95.1725 67.9849L66.5985 83.8273L64.2188 82.5047Z" fill="#5B8DD7"/>
<path opacity="0.6" d="M64.2188 82.5047L92.7869 66.668L95.1725 67.9849L66.5985 83.8273L64.2188 82.5047Z" fill="#FAFAFA"/>
</svg>
